<?xml version="1.0" standalone="no"?>
<!DOCTYPE svg PUBLIC "-//W3C//DTD SVG 20010904//EN"
 "http://www.w3.org/TR/2001/REC-SVG-20010904/DTD/svg10.dtd">
<svg version="1.0" xmlns="http://www.w3.org/2000/svg"
 width="1280.000000pt" height="866.000000pt" viewBox="0 0 1280.000000 866.000000"
 preserveAspectRatio="xMidYMid meet">
<metadata>
Created by potrace 1.15, written by Peter Selinger 2001-2017
</metadata>
<g transform="translate(0.000000,866.000000) scale(0.100000,-0.100000)"
fill="#000000" stroke="none">
<path d="M6680 8651 c-19 -3 -133 -6 -252 -6 -120 0 -218 -3 -218 -7 0 -4 -21
-6 -47 -6 -77 2 -247 -14 -260 -24 -6 -5 -43 -8 -80 -7 -38 1 -78 -3 -90 -9
-12 -7 -61 -15 -110 -18 -48 -3 -101 -12 -117 -20 -17 -8 -64 -14 -115 -15
-127 -1 -146 -3 -164 -18 -10 -8 -30 -11 -49 -8 -18 2 -42 0 -52 -6 -11 -5
-56 -14 -100 -19 -44 -5 -93 -15 -110 -23 -16 -8 -47 -15 -69 -15 -22 0 -54
-4 -71 -9 -56 -17 -225 -43 -235 -36 -6 3 -14 -1 -17 -9 -5 -12 -21 -16 -64
-16 -70 0 -198 -23 -237 -43 -15 -8 -66 -17 -113 -20 -111 -8 -225 -33 -258
-56 -18 -13 -52 -21 -102 -24 -41 -3 -93 -13 -115 -22 -22 -10 -51 -22 -65
-28 -14 -6 -36 -12 -50 -13 -51 -4 -146 -27 -186 -45 -22 -11 -44 -19 -49 -19
-5 0 -18 -11 -30 -25 -20 -24 -23 -25 -190 -27 -98 -2 -173 -7 -177 -13 -5 -6
-8 -5 -8 3 0 10 -4 10 -20 0 -14 -9 -27 -10 -47 -2 -16 5 -41 7 -58 3 -16 -4
-64 -7 -105 -8 -41 -1 -86 -7 -100 -14 -14 -7 -59 -19 -100 -27 -41 -7 -86
-21 -100 -30 -14 -10 -45 -28 -70 -40 -25 -12 -58 -38 -74 -57 -16 -19 -34
-32 -41 -29 -7 2 -19 -4 -28 -15 -9 -10 -26 -19 -37 -19 -11 0 -26 -12 -34
-27 -16 -32 -214 -227 -264 -262 -18 -13 -54 -30 -80 -37 -25 -8 -55 -23 -66
-33 -22 -20 -187 -81 -218 -81 -10 0 -23 -11 -27 -24 -5 -13 -16 -26 -24 -29
-8 -3 -41 -39 -73 -79 -32 -40 -64 -77 -71 -81 -7 -4 -13 -19 -13 -32 0 -18
-7 -26 -24 -31 -25 -6 -33 -20 -72 -124 -14 -36 -38 -78 -53 -95 -18 -19 -30
-45 -33 -70 -7 -54 -64 -195 -89 -218 -12 -12 -19 -31 -19 -57 0 -21 -23 -105
-51 -187 -74 -215 -99 -310 -99 -377 0 -40 -8 -80 -25 -121 -26 -67 -55 -221
-55 -298 0 -32 -7 -58 -19 -75 -13 -19 -22 -61 -30 -142 -18 -171 -33 -931
-25 -1281 l7 -306 -25 -54 c-13 -30 -49 -82 -79 -117 l-54 -64 -60 -2 c-33 -2
-103 -17 -158 -34 -53 -18 -107 -32 -120 -32 -17 0 -28 -12 -46 -51 -56 -124
19 -199 204 -203 39 -1 76 -5 83 -9 20 -13 14 -50 -16 -98 -28 -43 -61 -124
-100 -244 -15 -48 -33 -75 -84 -128 -35 -37 -69 -67 -75 -67 -16 0 -52 -99
-70 -190 -8 -44 -15 -133 -15 -215 0 -105 -4 -145 -15 -162 -17 -26 -11 -67
18 -125 25 -49 85 -72 191 -73 43 0 78 -3 78 -7 0 -4 16 4 36 17 20 14 42 25
48 25 6 0 28 5 48 10 66 19 67 22 61 188 -5 120 -3 158 11 204 19 65 52 110
95 128 26 10 37 9 84 -13 53 -24 94 -65 152 -154 18 -29 35 -43 49 -43 27 0
46 -18 46 -43 0 -11 8 -36 19 -56 39 -77 61 -132 61 -154 0 -24 149 -352 229
-505 30 -58 53 -90 75 -103 17 -10 46 -39 64 -64 20 -28 39 -45 52 -45 11 0
20 -6 20 -13 0 -24 49 -61 132 -102 77 -38 82 -43 94 -83 20 -70 38 -88 115
-117 39 -15 79 -37 88 -47 23 -29 118 -88 140 -88 11 0 21 -5 23 -10 2 -6 26
-16 53 -23 49 -12 50 -13 90 -93 45 -92 86 -148 118 -166 12 -6 45 -17 72 -23
49 -11 50 -13 47 -44 -3 -23 0 -31 8 -26 6 4 29 -9 50 -29 22 -20 48 -36 58
-36 15 0 73 -66 136 -155 13 -19 15 -18 21 18 4 20 4 44 1 53 -5 12 -1 14 17
8 59 -18 127 -46 132 -55 4 -5 58 -9 121 -9 76 0 126 -5 149 -14 34 -15 40
-15 88 -1 21 6 31 3 41 -10 20 -28 171 -16 214 15 46 34 192 45 244 19 21 -11
48 -19 60 -19 13 0 32 -7 42 -15 14 -11 47 -15 115 -15 75 0 114 -6 175 -25
43 -14 92 -25 110 -25 56 2 220 -19 276 -35 41 -12 78 -14 146 -9 66 4 98 3
115 -7 13 -7 43 -11 67 -10 24 1 42 -3 42 -9 0 -6 10 -8 24 -4 14 3 30 3 37
-2 7 -4 71 -6 142 -5 80 2 132 -1 136 -8 4 -6 20 -7 46 -1 26 6 44 5 52 -2 8
-7 98 -11 245 -13 157 -1 233 -6 236 -13 2 -8 10 -8 27 0 17 7 33 7 56 -1 24
-8 35 -8 46 1 10 8 27 8 66 0 59 -13 98 -12 110 3 4 7 10 6 15 -1 8 -11 51
-13 68 -2 15 10 157 14 171 5 7 -4 21 -2 32 5 15 9 30 10 61 2 22 -6 40 -8 40
-5 0 8 238 4 251 -5 5 -3 17 0 26 7 12 10 52 13 159 11 82 -1 144 2 144 7 0 5
26 12 58 15 31 3 82 8 112 11 30 3 69 6 85 7 17 1 77 5 135 11 58 5 118 9 135
9 16 -1 35 4 43 10 7 6 61 13 120 14 94 3 467 21 577 28 22 1 57 10 79 20 21
9 61 18 90 18 28 1 68 8 90 16 29 12 43 13 57 4 13 -9 19 -8 22 1 4 8 6 8 6
-2 1 -11 4 -11 16 -1 12 10 21 10 40 2 17 -8 26 -8 31 0 4 6 23 8 45 5 21 -3
39 -1 41 3 2 5 42 10 91 12 48 1 87 7 87 12 0 4 6 4 13 -3 10 -8 17 -7 25 1 8
8 15 8 27 -2 13 -10 22 -8 55 14 44 29 60 32 60 14 0 -7 7 -4 16 7 15 20 54
28 149 29 28 1 56 7 63 14 7 6 21 12 30 12 9 0 27 3 39 6 17 5 25 -1 37 -24
11 -21 27 -32 58 -40 51 -14 168 -13 186 1 8 6 12 6 12 -3 0 -10 3 -10 15 0 8
7 21 10 29 7 8 -3 20 1 26 8 7 9 29 14 54 14 22 -1 77 6 121 14 43 8 85 13 92
10 7 -3 13 0 13 7 0 7 7 10 16 6 9 -3 29 4 46 16 43 30 137 67 171 68 16 0 41
9 57 20 15 10 69 39 121 63 87 40 99 43 169 40 44 -1 96 4 124 12 27 8 62 15
78 15 17 0 28 5 28 14 0 8 31 25 73 40 40 15 90 40 110 57 20 17 41 28 47 24
5 -3 29 5 53 19 24 15 53 26 65 26 12 0 22 4 22 9 0 5 17 15 38 21 20 7 51 25
67 40 17 15 40 31 52 34 12 4 38 27 58 51 20 25 47 48 60 51 13 3 26 15 28 26
4 13 11 19 21 15 9 -4 24 7 41 29 17 22 33 33 43 30 12 -3 29 11 55 45 20 27
44 49 52 49 8 0 15 4 15 9 0 5 11 12 25 15 13 3 31 19 39 35 18 33 81 91 100
91 12 0 56 76 56 96 0 7 58 63 66 63 4 1 34 53 91 161 13 25 32 48 41 51 11 4
41 59 76 143 32 75 72 157 87 182 16 24 29 55 29 67 1 12 8 40 16 62 9 22 20
63 26 90 5 28 16 57 23 65 7 8 16 26 20 40 4 14 19 59 35 100 15 41 33 109 40
150 6 41 23 120 37 175 13 55 31 151 39 215 18 146 22 167 38 173 16 7 33 150
46 407 6 107 16 224 23 260 39 207 -10 1393 -62 1505 -11 22 -22 76 -26 120
-3 44 -19 148 -35 230 -16 83 -36 200 -44 262 -10 71 -23 127 -37 155 -12 23
-28 70 -36 103 -8 32 -20 66 -27 75 -7 8 -18 42 -25 75 -7 33 -37 118 -67 188
-30 71 -57 147 -60 169 -4 22 -13 42 -20 45 -7 3 -18 21 -25 41 -6 21 -19 46
-28 57 -9 11 -25 37 -34 58 -9 21 -40 67 -67 103 -28 36 -50 72 -50 80 0 10
-6 14 -17 11 -14 -4 -30 18 -73 105 -34 68 -66 118 -83 130 -15 11 -42 44 -58
74 -17 29 -39 56 -49 59 -10 3 -49 31 -87 61 -37 30 -80 57 -95 60 -16 4 -29
15 -32 28 -3 13 -29 34 -68 55 -35 19 -84 49 -110 67 -27 19 -54 31 -63 28 -8
-4 -15 -1 -15 5 0 7 -21 21 -47 33 -27 11 -75 42 -108 68 -77 61 -96 70 -139
70 -25 0 -36 4 -36 15 0 9 -10 15 -26 15 -31 0 -61 15 -96 48 -21 19 -34 23
-57 19 -24 -5 -44 3 -113 50 -97 64 -191 138 -232 182 -16 17 -34 28 -39 24
-6 -3 -15 1 -21 10 -7 8 -38 23 -69 32 -38 11 -70 29 -92 51 -19 19 -44 34
-55 34 -11 0 -23 7 -27 16 -4 12 -8 12 -13 3 -10 -16 -55 -4 -80 21 -12 12
-33 20 -53 20 -20 0 -56 14 -90 34 -36 22 -58 30 -61 22 -3 -7 -8 -5 -15 6 -6
9 -29 19 -50 23 -22 4 -42 13 -45 21 -4 11 -27 14 -101 14 -68 0 -94 3 -89 11
4 8 -1 9 -15 4 -12 -4 -28 -2 -35 4 -19 16 -157 30 -186 19 -14 -5 -59 -7
-101 -3 -50 5 -90 2 -120 -6 -24 -7 -53 -14 -64 -15 -26 -3 -105 -23 -125 -31
-8 -3 -22 -5 -31 -4 -9 1 -34 -10 -54 -24 -50 -33 -123 -33 -264 0 -110 25
-266 46 -386 53 -38 2 -98 5 -133 7 -35 2 -80 9 -100 17 -20 8 -58 13 -84 13
-27 -1 -48 3 -48 8 0 4 -5 5 -11 1 -7 -4 -36 -8 -65 -9 -30 -1 -57 -5 -61 -8
-3 -4 -13 -1 -21 6 -18 14 -147 27 -292 28 -58 0 -110 5 -117 11 -8 6 -18 6
-31 -1 -12 -7 -32 -6 -61 1 -31 8 -53 8 -75 1 -19 -7 -66 -8 -119 -4 -51 3
-92 2 -97 -3 -6 -6 -33 -5 -72 2 -46 9 -65 9 -75 0 -10 -8 -17 -8 -25 0 -13
13 -32 13 -88 3z m-105 -105 c61 0 121 2 135 3 68 6 200 0 200 -9 0 -7 7 -7
21 1 13 7 42 8 77 4 32 -3 69 -2 83 4 19 7 30 6 38 -2 8 -8 11 -8 11 3 0 11
23 12 128 5 70 -5 163 -10 207 -11 44 -2 113 -5 153 -6 40 -2 76 -7 80 -13 9
-13 62 -14 62 -2 0 5 7 4 15 -3 8 -6 20 -8 27 -4 24 15 315 -12 338 -31 9 -8
22 -10 35 -5 28 12 37 12 30 0 -8 -13 4 -12 84 0 51 9 67 8 80 -3 9 -8 47 -17
84 -21 73 -7 247 -44 259 -55 4 -3 -2 -26 -12 -50 -21 -45 -26 -76 -11 -67 4
3 14 -7 20 -22 11 -23 14 -25 24 -12 7 9 19 14 28 12 27 -5 36 19 26 76 -8 50
-27 73 -27 32 0 -28 -17 -25 -22 4 -5 27 7 36 48 36 13 0 24 -6 24 -13 0 -9 9
-12 28 -10 15 3 59 0 97 -6 39 -6 86 -14 105 -17 19 -3 37 -9 38 -15 3 -6 10
-5 19 2 11 10 16 10 23 0 5 -9 18 -11 38 -6 18 4 33 2 37 -5 4 -6 16 -8 27 -4
14 4 18 2 14 -5 -9 -15 16 -14 49 1 20 9 31 9 45 0 14 -9 20 -8 24 1 3 8 8 7
15 -4 8 -12 33 -19 83 -24 63 -7 77 -12 104 -39 17 -17 40 -32 50 -33 33 -2
96 -30 105 -46 5 -8 22 -18 37 -22 37 -8 72 -32 142 -96 32 -30 73 -65 90 -78
18 -14 41 -38 51 -55 10 -17 20 -29 21 -27 7 11 50 -23 64 -51 17 -33 80 -98
95 -98 5 0 26 -24 48 -52 21 -29 53 -66 71 -83 18 -16 49 -66 70 -110 24 -52
51 -93 78 -116 32 -28 45 -51 61 -105 12 -38 30 -80 41 -93 11 -13 20 -29 20
-37 0 -8 6 -14 13 -14 8 0 33 -53 62 -132 29 -81 57 -141 70 -153 15 -13 33
-53 50 -110 15 -49 78 -245 140 -435 107 -322 118 -365 175 -650 69 -343 77
-431 44 -458 -11 -9 -33 -37 -47 -62 -15 -25 -41 -60 -58 -79 -24 -26 -33 -31
-40 -20 -6 10 -9 8 -9 -10 0 -13 -3 -21 -7 -18 -3 4 -12 2 -20 -4 -10 -9 -13
-8 -13 1 0 9 -13 11 -45 8 -25 -3 -46 -1 -48 5 -1 5 -11 2 -21 -8 -14 -14 -20
-15 -26 -6 -5 9 -23 11 -61 7 -30 -4 -106 -2 -169 2 -109 9 -116 8 -133 -11
-16 -19 -17 -60 -1 -76 10 -11 680 -3 708 8 16 7 30 10 32 8 9 -9 23 -203 29
-382 7 -230 -9 -800 -26 -955 -6 -58 -12 -124 -13 -147 0 -23 -5 -41 -11 -40
-6 1 -9 -27 -7 -73 2 -41 -1 -95 -8 -120 -6 -25 -12 -74 -14 -110 -2 -38 -20
-117 -42 -190 -31 -100 -43 -125 -59 -128 -11 -2 -28 -11 -37 -19 -9 -8 -35
-17 -58 -20 -25 -4 -44 -13 -51 -24 -7 -14 -21 -19 -52 -19 -52 0 -165 -26
-193 -44 -11 -8 -32 -12 -46 -9 -14 3 -31 -1 -39 -9 -8 -8 -30 -13 -49 -12
-19 1 -39 -1 -44 -4 -6 -3 -55 -6 -110 -7 -62 -1 -128 -9 -171 -21 -62 -17
-70 -22 -73 -45 -2 -15 5 -32 18 -44 19 -18 23 -18 73 -2 28 9 61 14 73 11 12
-3 26 1 33 10 10 12 18 13 33 5 13 -7 47 -8 92 -4 66 6 87 10 141 31 11 4 29
6 39 5 10 -2 37 5 59 15 30 14 42 15 45 6 2 -6 12 -12 22 -12 10 0 22 -9 25
-21 5 -14 13 -19 26 -16 10 3 19 1 19 -5 0 -5 4 -6 10 -3 10 6 104 -58 128
-88 16 -19 4 -95 -28 -177 -12 -30 -25 -76 -31 -103 -5 -28 -14 -57 -21 -64
-7 -8 -22 -45 -34 -81 -12 -37 -34 -94 -48 -127 -14 -33 -26 -70 -26 -82 0
-12 -8 -28 -18 -35 -9 -7 -35 -58 -56 -112 -23 -59 -58 -124 -86 -161 -26 -35
-58 -91 -71 -125 -13 -34 -36 -74 -51 -89 -16 -14 -28 -31 -28 -37 0 -34 -43
-111 -71 -127 -17 -9 -33 -26 -36 -37 -3 -11 -11 -20 -19 -20 -7 0 -21 -12
-31 -26 -38 -54 -76 -94 -89 -94 -8 0 -18 -10 -23 -22 -16 -40 -204 -206 -249
-219 -7 -2 -29 -27 -50 -54 -31 -41 -55 -58 -135 -97 -78 -39 -98 -53 -103
-74 -4 -15 -2 -34 3 -43 10 -17 83 -29 83 -14 0 13 40 11 40 -2 0 -5 7 -2 14
7 25 33 25 6 0 -43 l-24 -49 -79 0 c-106 0 -109 2 -104 54 6 52 -6 63 -44 42
-64 -35 -123 -59 -151 -62 -13 -2 -38 -7 -55 -13 -18 -6 -69 -15 -114 -20 -46
-6 -96 -17 -112 -25 -15 -8 -68 -18 -117 -21 -113 -6 -312 -23 -341 -28 -13
-2 -28 2 -34 9 -15 18 -29 18 -29 -1 0 -12 -14 -15 -62 -17 -89 -2 -100 -4
-131 -17 -16 -6 -61 -11 -102 -11 -52 0 -78 -4 -88 -15 -12 -11 -17 -12 -20
-2 -4 8 -8 9 -14 2 -11 -14 -326 -15 -335 -1 -4 5 -4 30 -1 55 4 39 2 48 -15
58 -31 19 -72 -4 -72 -39 0 -18 5 -28 15 -28 10 0 15 -10 15 -29 0 -27 -4 -30
-42 -36 -28 -5 -43 -4 -46 4 -2 7 -13 5 -30 -6 -18 -12 -46 -18 -79 -18 -29 1
-53 -3 -53 -8 0 -5 -11 -6 -25 -3 -14 4 -66 1 -115 -5 -113 -15 -126 -8 -104
53 18 51 18 58 -1 58 -8 0 -24 6 -35 12 -16 10 -22 10 -34 -2 -15 -17 -32 -75
-18 -66 4 2 20 -5 35 -17 25 -21 25 -23 11 -42 -12 -14 -18 -16 -21 -7 -4 10
-8 10 -20 0 -10 -8 -56 -14 -122 -16 -58 -2 -112 -9 -118 -14 -7 -6 -23 -8
-36 -4 -13 3 -27 3 -30 0 -7 -8 -167 -14 -189 -8 -14 4 -18 16 -18 53 0 44 -2
48 -35 64 l-35 17 0 -70 c0 -70 0 -70 -27 -71 -16 0 -93 -2 -173 -3 -80 -2
-161 -5 -180 -9 -19 -3 -48 -1 -63 5 -21 8 -31 8 -40 -1 -13 -13 -80 -15 -124
-2 -18 5 -35 5 -40 0 -5 -5 -38 -5 -78 0 -38 4 -85 4 -104 0 -19 -4 -80 -4
-136 1 -55 5 -172 9 -260 10 -114 0 -178 5 -220 16 -39 10 -98 15 -167 14 -62
0 -173 8 -260 21 -167 23 -191 35 -152 74 15 15 15 17 -1 35 -10 11 -29 20
-42 20 -13 0 -39 6 -58 14 -18 8 -36 12 -39 9 -3 -3 -12 -1 -19 5 -21 18 -28
3 -21 -49 10 -77 6 -81 -68 -58 -35 11 -93 20 -130 21 -38 0 -68 4 -68 8 0 5
-24 11 -52 15 -29 4 -61 12 -71 17 -12 6 -23 6 -30 0 -19 -16 -66 -2 -87 26
-17 21 -20 40 -20 141 l0 117 54 53 c30 30 60 67 66 82 7 15 20 29 30 32 10 3
31 28 47 56 15 28 33 49 40 47 15 -6 27 9 49 68 10 27 35 72 56 100 21 28 38
57 38 66 0 8 14 26 31 40 17 14 45 58 64 98 19 40 44 86 55 103 12 16 36 67
52 112 17 45 36 99 44 121 8 21 22 45 30 54 23 22 47 83 73 182 13 47 41 132
63 190 54 142 64 177 83 305 24 165 54 245 91 245 7 0 22 12 33 27 20 24 24
25 59 15 21 -6 89 -19 152 -27 63 -9 134 -22 157 -30 46 -15 55 -10 66 33 9
36 -2 53 -28 46 -27 -7 -93 19 -101 41 -4 8 -1 22 6 30 11 13 9 19 -8 35 -25
24 -42 25 -68 5 -18 -14 -18 -16 21 -50 24 -21 34 -35 24 -35 -8 0 -20 5 -27
12 -9 9 -12 9 -12 -1 0 -10 -12 -12 -46 -8 -64 7 -110 48 -160 140 l-40 77 13
92 c34 244 60 545 99 1140 16 238 16 265 0 386 -16 131 -22 388 -8 408 4 5 36
11 72 12 36 0 125 6 199 13 73 6 153 9 177 5 23 -3 44 -2 46 2 2 5 48 6 103 2
55 -3 103 -5 108 -3 11 6 8 58 -5 71 -18 18 -406 16 -477 -2 -38 -11 -61 -12
-80 -5 -33 13 -201 185 -201 207 0 71 -113 661 -172 897 -62 251 -170 564
-228 665 -11 19 -20 47 -20 61 0 22 7 30 40 43 45 18 174 47 288 66 52 9 75
17 82 30 17 31 11 47 -21 61 -28 11 -41 9 -124 -19 -87 -29 -95 -31 -122 -17
-15 8 -36 15 -46 15 -10 0 -34 8 -55 17 -21 9 -56 15 -79 14 -26 -2 -43 2 -43
8 0 6 -10 11 -22 11 -19 1 -29 15 -55 71 -20 44 -40 73 -52 76 -11 3 -37 38
-62 86 -24 45 -63 99 -86 121 -24 22 -43 46 -43 53 0 6 -21 39 -47 72 -27 33
-61 79 -78 102 -16 22 -65 70 -107 105 -79 67 -168 159 -168 175 0 5 14 12 31
16 38 7 46 26 25 58 -29 45 -104 27 -85 -20 11 -28 11 -37 -1 -30 -6 3 -10 1
-10 -5 0 -13 -71 15 -82 33 -13 20 -9 75 7 115 27 62 50 79 128 92 38 7 115
28 170 46 56 19 139 39 186 45 48 6 122 20 165 30 44 11 101 19 127 19 25 0
64 6 86 14 22 8 89 22 149 31 250 39 288 46 344 70 48 20 76 25 149 25 50 0
93 5 96 10 4 6 10 8 15 5 5 -3 21 0 37 7 15 6 69 15 118 20 220 19 292 27 325
37 19 6 79 13 134 15 54 2 101 8 105 13 9 14 87 23 99 11 6 -6 17 -6 31 2 12
6 31 8 41 5 12 -4 20 -2 20 5 0 8 31 9 110 4 80 -5 110 -4 110 5 0 8 16 9 58
4 31 -5 107 -8 167 -7z m2857 -53 c20 -18 25 -78 6 -89 -6 -4 -16 -1 -22 7 -8
10 -25 14 -56 11 -61 -5 -86 14 -69 51 6 14 15 24 20 22 4 -3 18 -1 31 4 36
15 70 13 90 -6z m348 -40 c0 -16 2 -16 11 -3 7 12 9 8 7 -15 -2 -20 -8 -29
-17 -27 -8 2 -18 -3 -22 -10 -7 -10 -9 -9 -9 5 0 9 -4 17 -10 17 -5 0 -10 -9
-10 -20 0 -11 5 -20 11 -20 6 0 9 -7 5 -15 -3 -8 -1 -15 5 -15 5 0 19 -9 31
-20 12 -11 28 -20 36 -20 10 0 12 -7 8 -27 -5 -22 -4 -24 4 -11 12 19 11 20
76 -40 16 -15 31 -27 34 -27 3 0 36 -31 75 -68 56 -55 67 -70 55 -77 -22 -14
-34 -12 -21 4 14 17 0 29 -23 20 -19 -7 -21 7 -3 25 10 11 9 13 -5 8 -12 -4
-18 -1 -18 10 0 12 -3 13 -13 4 -10 -8 -20 -4 -41 18 -16 16 -42 35 -58 42
-17 7 -27 17 -24 25 5 13 -20 28 -33 19 -5 -2 -18 7 -31 20 -18 19 -26 22 -37
14 -7 -6 -13 -7 -13 -2 0 5 -15 17 -32 27 -18 11 -43 28 -55 39 -22 20 -23 20
-23 1 -1 -18 -1 -18 -11 -1 -6 9 -7 27 -4 38 7 20 6 20 -18 4 -18 -11 -31 -13
-44 -7 -46 24 -87 32 -95 19 -4 -7 -8 3 -8 26 0 31 3 37 21 37 16 0 20 -5 16
-20 -3 -11 -1 -20 4 -20 5 0 9 7 9 15 0 14 3 14 30 0 16 -8 34 -23 39 -32 9
-16 10 -16 11 -2 0 15 6 16 42 7 38 -8 45 -7 60 13 10 11 18 30 18 40 0 15 7
19 35 19 27 0 35 -4 35 -17z m120 -44 c-11 -8 -12 -12 -2 -16 14 -5 17 -33 3
-33 -12 0 -24 37 -16 50 3 5 12 10 18 10 7 0 6 -4 -3 -11z m160 -54 c7 -8 18
-15 26 -15 28 0 23 -21 -11 -55 -44 -42 -52 -43 -67 -9 -10 21 -9 31 7 60 20
38 27 41 45 19z m192 -65 c16 -18 16 -20 -8 -39 -14 -11 -30 -22 -37 -24 -7
-3 0 -17 21 -39 17 -19 32 -40 33 -48 0 -8 7 3 15 25 8 22 19 44 24 49 6 6 5
15 -3 24 -10 13 -9 14 3 9 8 -4 23 -10 33 -13 11 -4 16 -13 12 -23 -3 -11 8
-31 32 -54 l37 -37 4 -110 c3 -61 8 -110 12 -110 4 0 18 8 30 18 22 18 22 21
9 71 -11 45 -11 54 1 61 24 15 60 12 60 -5 0 -18 17 -20 23 -2 2 6 2 3 0 -8
-3 -11 -7 -46 -10 -78 l-5 -58 28 4 c40 5 52 29 35 69 -7 18 -14 44 -15 58 -1
20 4 26 26 28 24 3 31 -3 50 -43 16 -34 33 -51 57 -61 26 -11 36 -12 42 -3 5
9 14 8 34 -5 36 -24 40 -41 21 -89 -15 -40 -15 -43 1 -55 13 -9 34 -11 70 -7
l51 6 27 -46 c29 -48 28 -95 -1 -95 -11 0 -14 -9 -12 -32 2 -27 10 -36 43 -52
22 -10 41 -14 42 -9 2 6 10 18 17 29 13 17 15 17 40 1 30 -20 73 -82 78 -112
2 -16 -3 -21 -27 -23 -16 -2 -36 -8 -42 -14 -19 -15 -16 -52 6 -79 16 -19 21
-21 34 -11 11 10 17 10 22 1 11 -16 25 9 25 44 0 22 4 28 18 25 11 -2 52 -71
117 -199 55 -107 110 -213 121 -235 12 -21 38 -91 58 -154 20 -63 43 -124 51
-134 8 -11 15 -28 15 -38 0 -10 5 -18 11 -18 15 0 36 -56 59 -160 11 -51 26
-102 32 -113 6 -12 12 -40 14 -63 1 -23 9 -53 18 -66 30 -46 75 -207 100 -358
19 -109 32 -160 45 -175 12 -13 20 -42 24 -85 4 -36 9 -90 12 -120 5 -40 3
-60 -7 -73 -13 -18 -17 -18 -51 -4 -34 15 -36 15 -42 -4 -7 -23 1 -68 16 -85
12 -15 50 -7 66 14 17 21 20 16 38 -54 22 -90 33 -183 41 -362 4 -89 11 -165
16 -168 10 -7 13 -253 3 -263 -3 -2 -22 8 -44 23 -38 27 -61 28 -61 3 0 -7 -6
-24 -14 -38 -13 -25 -12 -28 10 -38 14 -6 24 -19 24 -31 0 -19 5 -16 37 17
l36 38 8 -34 c4 -19 5 -40 2 -48 -3 -7 0 -13 5 -13 7 0 6 -15 -3 -42 -10 -31
-15 -128 -19 -338 -2 -162 -10 -334 -17 -382 -11 -86 -12 -88 -39 -88 -64 0
-88 -11 -92 -41 -3 -20 0 -29 9 -29 7 0 13 -4 13 -10 0 -5 7 -10 15 -10 20 0
19 -10 -2 -27 -17 -14 -17 -14 0 -9 26 8 16 -16 -11 -29 -47 -21 -19 -85 36
-85 39 0 42 -56 10 -255 -17 -105 -27 -143 -40 -153 -13 -10 -18 -27 -18 -62
0 -27 -4 -51 -9 -54 -12 -8 -28 -85 -46 -222 -12 -91 -24 -133 -61 -220 -26
-60 -49 -127 -52 -149 -2 -22 -14 -50 -24 -62 -12 -13 -23 -42 -26 -70 -3 -26
-8 -50 -12 -53 -4 -3 -15 -22 -23 -43 -11 -26 -22 -37 -36 -37 -12 0 -21 4
-21 9 0 5 -11 8 -25 7 -22 -1 -25 -6 -25 -37 0 -35 20 -66 33 -53 3 4 9 -5 12
-19 4 -16 -1 -40 -16 -68 -13 -24 -26 -64 -29 -89 -3 -28 -10 -44 -18 -42 -7
1 -12 -3 -12 -9 0 -6 -11 -24 -24 -39 -13 -16 -34 -58 -47 -94 -17 -50 -28
-68 -45 -72 -15 -4 -28 -21 -39 -47 -22 -55 -114 -207 -125 -207 -5 0 -19 14
-32 30 l-24 30 -42 -17 c-37 -14 -43 -20 -40 -42 2 -18 13 -31 35 -41 36 -17
41 -36 18 -80 -31 -61 -90 -86 -131 -55 -25 19 -48 19 -64 0 -20 -24 -50 -19
-50 9 0 13 -6 35 -13 49 l-14 26 -33 -20 c-26 -16 -35 -18 -41 -7 -19 30 -8
-18 11 -50 11 -18 20 -39 19 -45 -3 -24 1 -37 12 -37 7 0 9 10 7 25 -4 17 -1
25 8 25 25 0 29 -5 26 -29 -2 -13 2 -46 8 -72 10 -42 9 -51 -7 -73 -10 -14
-23 -24 -29 -22 -7 3 -26 -11 -44 -29 l-32 -33 -42 19 c-22 10 -50 19 -62 19
-16 0 -21 6 -21 28 0 15 -4 48 -8 74 -9 56 4 78 45 78 51 0 58 -7 52 -56 -2
-25 -1 -44 4 -43 5 1 17 -1 27 -6 12 -5 28 2 56 26 34 29 39 40 39 74 0 22 -2
31 -5 20 -8 -34 -23 -42 -39 -21 -13 19 -14 19 -34 1 -17 -16 -20 -16 -26 -2
-3 9 -12 13 -20 10 -20 -8 -19 -3 36 127 28 65 50 125 50 134 0 10 6 13 16 9
8 -3 26 4 41 18 17 16 27 20 30 12 2 -7 11 -9 19 -6 11 4 13 -7 11 -57 l-2
-63 50 -1 c48 -1 49 0 57 34 9 42 -9 60 -59 60 -30 0 -33 3 -33 29 0 15 10 41
22 57 12 16 15 23 8 16 -20 -17 -30 -15 -30 7 0 39 -11 51 -49 51 -26 0 -47
-9 -73 -30 -36 -30 -88 -119 -88 -150 0 -9 -11 -26 -25 -38 -14 -12 -25 -26
-25 -31 0 -5 -9 -13 -20 -16 -11 -3 -20 -15 -20 -25 0 -10 -22 -37 -50 -60
-30 -25 -50 -50 -50 -62 0 -13 -5 -18 -14 -15 -9 4 -29 -11 -51 -39 -20 -24
-44 -44 -53 -44 -16 -1 -63 -69 -100 -145 -8 -16 -33 -43 -56 -58 -22 -16 -63
-44 -90 -63 -28 -20 -60 -34 -77 -34 -25 0 -29 -4 -29 -27 0 -15 5 -41 12 -60
6 -18 9 -35 6 -39 -11 -11 -74 16 -98 41 -28 30 -34 31 -60 5 -18 -18 -20 -18
-19 -2 1 21 17 62 18 45 1 -7 6 -13 12 -13 6 0 8 8 4 19 -5 15 2 23 30 37 37
17 99 82 118 122 6 13 18 21 28 20 22 -4 252 211 269 251 7 17 17 28 25 25 7
-3 22 6 33 20 11 14 25 26 31 26 6 0 17 15 25 34 8 19 42 76 76 126 34 51 71
112 82 136 10 24 26 44 34 44 8 0 20 15 26 32 6 18 34 76 61 128 92 175 117
230 132 286 17 65 13 59 42 68 16 5 23 2 28 -13 3 -10 4 -25 3 -32 -2 -10 10
-14 44 -14 l48 0 0 36 c0 36 0 36 -51 43 l-50 7 6 32 c8 35 54 176 133 408 48
140 92 319 92 374 0 14 4 24 10 20 30 -18 117 581 135 930 7 131 19 173 42
153 11 -9 17 -9 24 3 8 12 11 12 19 -3 16 -26 48 -12 43 20 -4 26 -4 26 11 8
9 -11 16 -14 16 -8 0 7 -9 20 -20 29 -11 10 -20 24 -20 31 0 11 -8 13 -29 9
-25 -5 -31 -2 -42 26 -15 33 -15 47 -8 343 3 150 1 184 -11 203 -14 20 -14 33
-3 95 17 96 16 198 -1 243 -16 40 -26 131 -51 453 -27 339 -68 600 -100 625
-17 14 -30 66 -50 199 -14 96 -47 203 -77 242 -4 6 -13 35 -18 65 -6 30 -55
164 -109 299 -55 135 -104 264 -110 288 -7 23 -23 59 -36 79 -15 20 -25 50
-25 70 0 31 2 33 28 27 15 -4 32 -13 39 -22 28 -35 130 -294 268 -680 63 -175
71 -183 82 -74 6 60 14 72 49 72 18 0 23 7 26 36 6 49 -23 79 -49 53 -8 -8
-17 -8 -30 -1 -25 14 -88 210 -79 246 9 35 -9 76 -34 76 -15 0 -30 20 -60 80
-45 90 -48 108 -21 141 14 18 17 29 9 42 -5 10 -8 35 -6 55 2 28 7 36 19 34
12 -2 18 8 23 35 7 43 -10 63 -51 63 -32 0 -40 -26 -19 -62 35 -59 -14 -120
-68 -84 -35 22 -40 53 -27 143 6 42 10 78 8 80 -2 1 -19 -2 -37 -8 -32 -12
-32 -12 -27 -65 5 -51 4 -54 -21 -66 -18 -9 -28 -22 -30 -41 -5 -39 -20 -33
-32 13 -9 33 -8 47 6 76 17 35 17 38 -9 118 -15 44 -27 87 -27 94 0 7 14 18
31 24 31 11 31 11 24 63 -5 43 -3 57 12 74 9 12 23 21 30 21 24 0 13 33 -18
59 l-31 26 26 38 26 39 -26 30 c-16 20 -24 39 -20 52 5 21 5 21 -9 2 -8 -11
-15 -24 -15 -30 0 -5 -6 -17 -14 -25 -15 -17 -11 -71 5 -71 5 0 9 -13 9 -30 0
-16 -4 -30 -9 -30 -16 0 -20 -45 -6 -67 21 -32 19 -63 -4 -63 -14 0 -20 -10
-25 -41 -4 -22 -3 -46 0 -52 4 -7 -9 4 -29 22 -37 35 -37 35 -37 117 0 46 4
94 9 108 11 27 2 39 -35 50 -17 5 -24 1 -34 -24 -7 -16 -16 -30 -20 -30 -4 0
-36 30 -70 67 -70 74 -108 146 -117 220 l-5 49 -51 -13 -50 -13 -39 35 c-21
19 -43 35 -48 35 -6 0 -10 15 -10 34 0 28 4 35 22 38 15 2 31 18 46 46 26 46
48 53 74 22z m241 -126 c3 -4 -1 -21 -10 -38 -16 -30 -16 -30 -26 -9 -16 36
11 71 36 47z m11 -70 c3 -8 2 -12 -4 -9 -6 3 -10 10 -10 16 0 14 7 11 14 -7z
m-382 -51 c10 -9 18 -26 18 -38 0 -11 6 -27 13 -34 10 -11 9 -13 -3 -9 -8 3
-17 15 -18 28 -5 31 -27 51 -46 44 -9 -3 -16 -2 -16 4 0 9 13 18 29 21 3 1 13
-6 23 -16z m146 -134 c23 -25 42 -51 42 -57 0 -6 9 -13 19 -17 11 -3 22 -14
25 -23 3 -9 22 -41 41 -70 19 -30 35 -57 35 -62 0 -5 -27 19 -61 52 -45 45
-57 63 -47 69 10 7 7 11 -9 15 -18 5 -23 14 -23 37 0 29 -1 30 -14 11 -14 -18
-15 -18 -21 9 -4 15 -11 27 -16 27 -5 0 -9 6 -9 13 0 8 -10 13 -22 13 -15 -1
-23 5 -23 16 0 10 -6 23 -13 30 -6 6 -12 15 -12 20 0 13 64 -36 108 -83z
m-7130 43 c2 -12 -1 -22 -6 -22 -6 0 -17 -3 -26 -6 -12 -5 -16 0 -16 19 0 41
42 48 48 9z m142 -11 c0 -12 -11 -23 -30 -30 -35 -12 -39 -35 -14 -84 12 -22
13 -32 5 -35 -21 -7 -41 -33 -41 -53 0 -11 -5 -17 -10 -14 -13 8 -50 80 -50
98 0 23 80 107 101 107 11 0 22 7 25 15 8 21 14 19 14 -4z m62 -1 c25 -11 51
-26 57 -34 8 -10 23 -13 45 -9 32 5 33 4 42 -38 l9 -44 55 -3 55 -3 0 -69 c0
-66 -2 -71 -32 -99 -37 -33 -37 -34 -23 -62 13 -23 62 -26 80 -5 6 8 11 34 10
58 -3 69 -1 78 14 72 9 -3 17 3 21 15 9 30 36 26 81 -13 40 -35 39 -40 -11
-48 -28 -5 -27 -56 0 -74 18 -12 24 -11 43 2 12 8 22 24 22 35 0 18 2 19 28 5
63 -32 122 -123 122 -187 0 -9 14 -22 31 -30 54 -22 89 -58 89 -90 0 -18 -5
-29 -14 -29 -23 0 -46 -29 -46 -59 0 -51 38 -66 83 -31 14 11 30 20 36 20 6 0
29 -19 52 -42 71 -73 99 -154 75 -212 -19 -46 -3 -66 57 -66 l45 0 31 -86 c17
-47 31 -97 31 -112 0 -24 -4 -28 -27 -27 -26 0 -28 -2 -26 -39 2 -22 5 -41 7
-43 2 -3 23 5 47 16 48 24 64 17 74 -31 6 -26 2 -36 -29 -67 -33 -33 -35 -39
-21 -51 8 -7 15 -19 15 -27 0 -10 6 -12 23 -7 59 19 75 9 92 -53 9 -32 40
-134 70 -228 61 -191 95 -324 95 -373 0 -18 16 -106 36 -195 30 -138 65 -376
104 -712 5 -44 12 -124 14 -177 l4 -98 -43 0 c-53 0 -61 -10 -40 -49 13 -26
19 -30 44 -25 25 5 29 2 35 -23 4 -15 9 -111 12 -213 5 -147 0 -281 -25 -650
-17 -256 -38 -514 -46 -575 -35 -270 -58 -409 -90 -535 -18 -74 -41 -172 -50
-218 -9 -45 -39 -147 -66 -225 -27 -78 -49 -151 -49 -163 0 -12 -11 -33 -24
-46 -12 -14 -29 -48 -35 -74 -7 -27 -36 -105 -65 -174 -29 -69 -66 -156 -81
-194 -16 -38 -44 -89 -62 -113 -19 -24 -58 -95 -88 -156 -36 -74 -69 -127 -96
-152 -33 -32 -40 -36 -39 -20 7 71 -7 88 -64 78 -22 -5 -26 -11 -26 -39 0 -27
6 -36 30 -49 16 -8 36 -15 46 -15 11 0 14 -5 10 -16 -3 -9 -6 -20 -6 -26 0 -5
-17 -27 -37 -48 -51 -53 -83 -96 -83 -110 0 -7 -7 -10 -15 -6 -11 4 -19 -3
-26 -21 -5 -15 -30 -48 -55 -75 l-44 -47 -26 40 c-22 35 -29 40 -57 37 -27 -3
-32 -7 -29 -28 1 -13 16 -37 33 -52 27 -25 29 -30 16 -48 -8 -11 -36 -36 -63
-55 -43 -31 -50 -33 -64 -20 -25 23 -56 18 -79 -12 -19 -23 -20 -28 -6 -43 8
-9 15 -24 15 -33 0 -19 -105 -81 -125 -73 -8 3 -15 23 -17 48 l-3 43 -46 -3
c-43 -3 -47 -1 -59 27 -14 34 -6 71 16 71 16 0 17 5 8 49 -5 24 -12 31 -30 31
-12 0 -26 -5 -29 -11 -11 -16 -45 20 -45 48 0 30 33 31 63 0 13 -12 35 -23 50
-23 27 -2 27 -2 27 67 0 80 15 96 55 59 35 -33 40 -56 16 -86 l-20 -26 21 -28
c24 -32 18 -60 -12 -60 -15 0 -20 -7 -20 -28 0 -27 15 -48 48 -66 34 -20 62
169 33 223 -9 17 -10 26 -2 34 6 6 11 37 11 69 0 51 2 58 19 58 41 0 51 -11
51 -55 0 -71 53 -102 74 -43 7 19 5 35 -7 61 -10 19 -17 42 -17 52 0 9 -7 30
-16 47 -15 29 -15 31 9 57 13 14 27 33 29 41 3 9 10 -3 17 -27 6 -23 22 -49
34 -58 20 -15 23 -14 40 6 36 45 11 106 -41 97 -35 -6 -24 38 22 92 26 30 46
57 46 62 0 22 20 4 28 -24 7 -25 13 -32 28 -30 31 6 44 23 44 58 0 31 -2 33
-37 36 -37 3 -38 4 -41 46 -2 23 -8 42 -14 42 -21 0 -74 -68 -143 -181 -88
-145 -146 -207 -265 -279 -52 -33 -111 -75 -129 -94 -19 -20 -43 -36 -53 -36
-10 0 -21 -6 -24 -13 -3 -8 -19 -14 -35 -15 -17 0 -42 -8 -56 -17 -21 -14 -27
-15 -34 -4 -7 11 -9 11 -9 -2 0 -17 -19 -29 -47 -29 -8 0 -38 -12 -67 -26 -41
-21 -61 -25 -104 -22 -29 3 -55 1 -58 -4 -3 -5 4 -25 15 -44 26 -44 26 -60 1
-76 -12 -8 -20 -24 -20 -41 0 -38 -18 -25 -26 19 -6 31 -35 64 -56 64 -4 0
-14 -14 -20 -30 -12 -29 -14 -30 -35 -15 -15 11 -23 26 -23 46 0 26 3 29 32
29 39 0 68 25 68 59 0 23 6 28 48 39 26 7 63 14 82 15 19 2 80 27 135 56 55
30 132 69 170 88 50 25 95 59 158 121 48 48 96 87 106 87 27 0 103 94 273 335
106 150 122 179 132 229 3 19 17 48 30 65 33 44 51 82 90 188 19 51 50 129 70
172 19 44 38 97 41 118 4 21 12 38 19 38 14 0 73 181 110 340 30 128 121 612
131 695 4 33 13 67 20 75 14 17 41 435 51 785 9 308 -23 891 -51 925 -7 8 -17
49 -23 90 -59 426 -74 506 -128 688 -31 103 -66 225 -79 271 -12 46 -28 86
-34 90 -6 4 -26 61 -45 127 -55 192 -97 304 -114 304 -5 0 -24 39 -42 88 -76
202 -171 369 -274 481 -31 34 -56 66 -56 72 0 18 -82 136 -155 224 -49 59 -82
88 -128 112 -34 19 -84 55 -112 82 -35 34 -67 54 -105 66 -30 10 -65 29 -77
41 -12 13 -30 24 -39 24 -10 0 -36 8 -58 19 -81 37 -138 53 -166 48 -15 -3
-31 -3 -35 1 -9 10 -65 11 -65 2 0 -5 -25 -1 -57 7 -31 8 -67 12 -80 8 -13 -3
-48 -28 -79 -56 -58 -52 -89 -69 -130 -69 -72 0 19 166 122 221 20 10 29 10
44 1 11 -7 48 -12 82 -12 35 -1 92 -7 128 -16 36 -8 102 -23 147 -32 45 -10
91 -26 102 -36 12 -11 40 -20 73 -22 38 -2 58 -9 69 -23 9 -11 19 -18 22 -15
9 10 83 -36 122 -77 22 -22 88 -77 148 -121 59 -44 107 -86 107 -92 0 -17 191
-246 227 -273 19 -13 53 -66 92 -140 34 -65 72 -131 86 -147 20 -25 26 -28 39
-17 21 18 20 40 -4 92 -27 61 -26 79 6 79 53 0 75 29 58 74 -11 28 -63 20 -95
-15 -29 -31 -30 -31 -50 -13 -12 11 -30 37 -41 59 -12 22 -36 57 -54 78 -42
46 -43 63 -4 85 24 13 30 24 30 50 0 41 -21 50 -66 28 -70 -33 -74 -23 -43 86
16 59 7 73 -39 56 -18 -7 -32 -17 -32 -23 0 -21 -17 -35 -33 -29 -22 8 -22 43
0 106 16 43 16 50 3 58 -23 15 -29 13 -68 -26 -26 -26 -37 -32 -43 -22 -11 17
-11 17 5 72 8 26 26 62 40 81 46 59 29 120 -31 113 -27 -3 -28 -6 -33 -66 l-5
-63 -39 40 c-39 40 -39 41 -20 56 10 8 29 18 42 21 28 8 27 19 -3 69 -23 37
-30 55 -21 55 2 0 24 -9 48 -20z m-349 -15 c18 -25 18 -25 -8 -35 -15 -6 -34
-10 -42 -10 -9 0 -25 -7 -35 -17 -17 -15 -19 -15 -38 2 -20 18 -26 46 -13 58
3 4 16 -2 28 -13 26 -24 53 -18 66 16 11 30 19 30 42 -1z m-223 -6 c-7 -11
-14 -18 -17 -15 -8 8 5 36 17 36 7 0 7 -6 0 -21z m304 -41 c9 -43 7 -78 -2
-78 -18 0 -43 38 -49 73 -5 32 -3 35 20 35 20 0 26 -7 31 -30z m196 -193 c0
-14 -5 -25 -11 -25 -6 0 -8 7 -5 16 4 12 2 15 -9 10 -8 -3 -15 -1 -15 3 0 9
16 18 33 20 4 1 7 -10 7 -24z m-475 -42 c140 -59 262 -127 319 -180 33 -30 74
-62 93 -71 19 -9 33 -23 33 -34 0 -9 12 -24 28 -32 45 -24 96 -85 172 -206 39
-63 91 -135 115 -160 67 -70 69 -77 38 -160 -15 -40 -42 -89 -63 -112 -35 -40
-39 -42 -126 -54 -152 -20 -350 -62 -469 -98 -45 -13 -96 -26 -113 -28 -32 -3
-33 -2 -65 77 -18 44 -73 166 -122 271 -78 167 -93 193 -118 202 -51 19 -62
-6 -25 -54 23 -29 87 -203 88 -238 0 -14 -5 -17 -20 -13 -17 4 -22 0 -26 -23
-6 -26 -8 -28 -48 -23 -48 6 -69 24 -91 76 -17 41 -17 42 20 25 22 -10 28 -9
36 3 15 25 10 48 -20 81 l-30 33 -12 -47 c-14 -52 -29 -46 -29 11 0 28 -12 46
-69 107 -62 65 -88 110 -92 159 0 6 -19 24 -42 40 -23 17 -47 41 -53 54 -7 13
-28 33 -47 45 -19 11 -49 31 -68 44 -19 12 -52 27 -74 33 -51 14 -85 35 -85
54 0 25 38 55 70 55 17 0 39 9 50 20 11 11 26 17 34 14 8 -3 17 -1 20 5 4 6
31 -9 64 -34 31 -25 91 -69 132 -98 41 -28 81 -64 89 -78 14 -25 13 -29 -12
-62 l-26 -34 24 -23 c28 -27 52 -21 61 15 6 22 24 36 24 17 0 -12 77 -92 89
-92 22 0 12 76 -16 118 -43 62 -139 162 -157 162 -22 0 -21 47 4 110 11 28 20
60 20 71 0 17 5 19 33 14 20 -4 47 0 71 10 21 9 87 22 146 30 60 7 116 18 127
24 20 12 34 9 118 -26z m7664 -9 c3 -16 1 -17 -13 -5 -19 16 -21 34 -3 29 6
-3 14 -13 16 -24z m848 16 c31 5 54 3 72 -6 14 -8 31 -14 38 -14 6 0 33 -19
59 -41 27 -23 67 -49 90 -59 23 -10 51 -32 64 -50 12 -17 49 -51 82 -75 57
-41 98 -89 190 -220 23 -33 70 -97 105 -142 107 -137 117 -184 51 -245 -46
-42 -60 -45 -115 -23 -21 8 -67 17 -103 18 -51 3 -66 8 -68 20 -3 16 -42 23
-96 18 -28 -2 -29 -6 -17 -43 10 -30 18 -35 85 -55 41 -13 91 -23 110 -23 30
0 36 -3 37 -22 0 -22 1 -22 9 -3 6 13 9 15 9 5 1 -11 14 -15 50 -16 60 -1 130
-26 161 -59 13 -14 31 -25 41 -25 10 0 21 -4 24 -10 3 -5 16 -9 28 -9 12 1 37
-5 56 -13 30 -14 36 -24 67 -119 19 -56 34 -108 34 -115 0 -6 6 -17 14 -23 8
-7 19 -35 25 -62 6 -27 24 -76 41 -109 23 -45 30 -73 30 -116 0 -43 7 -69 30
-113 33 -63 50 -145 80 -391 37 -294 36 -267 7 -298 -14 -15 -33 -54 -42 -87
-10 -33 -22 -63 -28 -66 -5 -4 -27 -4 -48 -2 -22 3 -45 1 -52 -6 -11 -8 -22
-8 -47 0 -20 8 -39 9 -49 3 -9 -5 -76 -9 -148 -9 -132 0 -133 0 -133 -23 0
-13 7 -37 16 -53 13 -25 18 -28 30 -18 9 8 45 11 100 10 47 0 93 3 104 9 14 7
23 6 34 -6 9 -8 20 -13 26 -9 5 3 46 8 90 11 l81 6 52 -52 c28 -29 59 -56 68
-61 11 -6 21 -35 30 -91 19 -114 18 -1048 -1 -1093 -7 -16 -16 -75 -21 -130
-22 -287 -41 -404 -68 -411 -9 -3 -29 -12 -44 -20 -16 -7 -36 -14 -45 -14 -9
0 -32 -9 -50 -20 -18 -11 -44 -20 -58 -20 -14 0 -60 -14 -102 -30 -42 -17 -95
-34 -119 -37 -39 -5 -43 -4 -43 16 0 36 -18 59 -56 71 -30 10 -38 10 -45 -1
-15 -24 -10 -46 18 -79 29 -35 30 -34 -39 -70 -21 -11 -47 -20 -59 -20 -20 0
-21 3 -16 88 5 114 29 296 38 302 10 7 35 294 49 545 13 244 13 831 0 1061
-18 307 -40 518 -56 531 -11 8 -26 84 -50 251 -36 254 -55 338 -99 441 -32 76
-85 279 -85 326 0 18 -7 38 -15 45 -19 15 -101 268 -111 338 -5 41 -9 50 -20
41 -16 -13 -30 12 -73 133 -29 84 -30 89 -16 129 18 49 19 89 4 89 -5 0 -7 -5
-3 -11 5 -9 -1 -10 -22 -4 -16 4 -37 7 -46 7 -10 0 -18 5 -18 12 0 7 -32 64
-71 127 -119 191 -123 201 -108 254 7 25 17 41 22 36 4 -4 28 -5 54 -1z m-812
-71 c4 -17 15 -39 26 -50 10 -10 15 -21 10 -23 -9 -6 -46 33 -47 52 -1 6 -2
19 -2 27 -1 8 -10 15 -19 15 -15 0 -16 2 -3 9 19 13 27 6 35 -30z m75 -99 c0
-5 -2 -10 -4 -10 -3 0 -8 5 -11 10 -3 6 -1 10 4 10 6 0 11 -4 11 -10z m-8790
-135 c17 -9 30 -18 30 -20 0 -11 -61 -33 -119 -44 -74 -12 -106 -31 -216 -130
-71 -64 -83 -71 -110 -65 -16 3 -34 8 -38 11 -23 13 51 136 93 153 16 6 36 20
46 31 9 10 27 19 39 19 12 0 60 13 106 30 96 33 128 36 169 15z m65 -214 c39
-11 77 -15 85 -11 8 4 45 10 82 11 l67 4 71 -100 c104 -146 151 -230 171 -308
9 -38 24 -76 32 -85 27 -31 44 -77 61 -161 10 -47 31 -110 47 -140 16 -31 29
-65 29 -77 0 -11 11 -54 25 -95 36 -103 59 -213 111 -518 25 -145 47 -267 49
-272 13 -20 25 -124 35 -282 17 -285 22 -327 39 -345 14 -14 16 -82 16 -654 0
-425 -3 -641 -10 -646 -6 -4 -19 -56 -29 -117 -10 -60 -20 -112 -22 -115 -3
-2 -14 2 -25 9 -18 10 -23 10 -35 -6 -7 -10 -14 -23 -14 -30 0 -16 28 -43 46
-43 20 0 18 -75 -6 -260 -35 -260 -135 -710 -174 -781 -13 -24 -43 -100 -67
-169 -54 -159 -62 -170 -107 -170 l-35 0 7 -72 c7 -90 -10 -133 -104 -253 -71
-91 -77 -96 -121 -93 -35 3 -39 -3 -54 -75 -7 -37 -89 -77 -157 -77 l-48 0 0
39 c0 36 -3 40 -59 70 -58 30 -112 39 -140 22 -25 -16 8 -51 77 -83 63 -28 66
-31 44 -41 -17 -8 -29 -8 -41 0 -9 6 -41 14 -71 18 -51 7 -61 13 -132 81 -43
41 -82 74 -87 74 -5 0 -11 10 -15 23 -3 13 -32 54 -65 90 -61 70 -83 117 -222
476 -41 106 -69 224 -69 289 l1 37 24 -40 c14 -22 48 -109 76 -193 28 -85 73
-199 100 -254 27 -56 49 -109 49 -118 0 -9 12 -27 26 -41 14 -13 48 -60 75
-104 52 -84 72 -110 103 -135 18 -14 19 -13 14 40 -3 44 -13 69 -46 118 -23
35 -42 67 -42 72 0 4 16 17 35 29 41 24 45 47 10 63 -20 9 -34 9 -60 -1 -19
-7 -39 -10 -44 -7 -5 4 -17 30 -27 59 -9 28 -32 83 -51 122 -21 44 -33 84 -33
110 0 43 17 80 27 58 12 -31 41 -56 57 -50 33 13 32 34 -1 125 -3 6 2 12 10
12 24 0 73 -67 92 -125 10 -33 23 -55 33 -57 32 -7 125 13 203 43 l79 30 26
-20 c58 -46 102 -12 65 50 l-20 32 40 78 c21 43 39 88 39 99 0 11 1 20 3 20 1
0 23 -7 49 -15 44 -13 49 -13 57 3 5 10 7 30 4 45 -5 26 -13 31 -68 39 -17 3
-20 11 -20 57 0 52 1 54 34 65 68 22 64 59 -9 96 l-36 19 -28 135 c-33 161
-48 206 -87 267 -51 80 -106 107 -297 142 -71 13 -75 13 -125 -10 -103 -48
-180 -136 -208 -236 -8 -31 -14 -37 -27 -32 -9 4 -42 16 -73 27 l-56 19 -6 77
c-4 58 -2 80 8 92 8 9 26 42 41 75 38 83 45 202 16 268 -24 54 -60 81 -102 75
-46 -7 -56 12 -44 80 14 75 10 252 -6 327 -9 45 -11 116 -5 280 4 121 7 292 7
380 0 88 5 201 13 250 7 51 11 129 8 180 -4 78 -1 106 26 210 19 73 31 145 31
185 0 183 28 370 109 750 64 296 64 294 111 373 22 37 44 87 49 111 4 24 19
59 33 77 14 19 40 63 58 99 18 36 46 85 63 110 48 69 167 201 191 210 36 15
168 10 241 -9z m-624 -257 c22 -27 14 -85 -21 -147 -17 -31 -45 -103 -61 -159
-17 -55 -39 -113 -49 -129 -11 -15 -20 -40 -20 -55 0 -15 -18 -98 -40 -184
-22 -86 -43 -183 -46 -214 -4 -32 -13 -64 -21 -71 -8 -8 -18 -49 -23 -92 -14
-124 -22 -163 -31 -157 -5 3 -18 0 -31 -7 -45 -24 -62 49 -33 146 9 27 26 115
40 195 27 162 47 234 80 300 12 25 28 79 35 120 19 119 49 209 133 393 37 81
59 96 88 61z m1374 -210 c19 5 20 2 17 -29 -3 -29 0 -36 26 -49 19 -10 31 -25
35 -45 5 -22 21 -41 57 -67 27 -20 50 -42 50 -50 0 -18 14 -18 49 0 15 8 84
29 152 46 68 17 152 40 186 51 35 11 71 18 82 14 10 -3 38 1 62 10 24 8 61 15
83 15 73 0 290 43 315 62 23 18 24 18 38 -2 22 -31 51 -102 94 -226 21 -63 56
-149 77 -191 26 -53 41 -98 45 -138 7 -65 45 -178 77 -231 14 -22 28 -76 40
-161 11 -70 28 -146 39 -168 29 -60 74 -405 60 -465 -13 -56 -42 -104 -82
-134 -31 -24 -38 -24 -257 -28 -209 -3 -228 -5 -266 -25 -53 -28 -62 -49 -26
-58 15 -4 138 -3 273 0 174 6 270 4 331 -5 84 -12 86 -12 92 -42 3 -17 6 -198
7 -402 0 -204 4 -422 7 -485 9 -153 -3 -363 -28 -484 -11 -55 -20 -127 -20
-161 0 -85 -17 -228 -36 -308 -15 -61 -19 -68 -48 -78 -18 -6 -67 -33 -110
-60 -103 -65 -150 -74 -232 -49 -51 16 -87 19 -181 17 l-118 -3 0 -35 0 -35
75 0 c67 -1 191 -24 230 -44 8 -4 40 -7 70 -5 143 8 154 7 169 -15 7 -12 22
-21 32 -21 16 0 19 -8 19 -57 0 -68 -15 -129 -35 -140 -7 -5 -28 -64 -45 -133
-17 -69 -46 -156 -64 -195 -18 -38 -49 -121 -69 -183 -41 -126 -123 -298 -166
-347 -15 -17 -42 -69 -61 -114 -36 -91 -60 -121 -249 -314 -158 -162 -239
-221 -450 -332 -31 -16 -69 -40 -85 -53 -49 -38 -77 -22 -57 31 9 23 6 29 -19
51 -31 25 -119 56 -162 56 -14 0 -35 12 -49 26 -13 14 -32 29 -41 33 -16 6
-16 10 8 43 21 30 24 40 15 57 -9 16 -21 21 -50 21 -35 0 -38 -2 -34 -24 3
-14 14 -33 24 -42 29 -26 23 -35 -21 -32 -22 1 -42 -1 -46 -4 -14 -15 9 -68
34 -81 15 -8 50 -29 79 -47 33 -20 70 -34 100 -37 26 -3 55 -12 64 -19 8 -8
30 -17 47 -20 17 -4 29 -10 26 -15 -3 -5 -9 -7 -14 -4 -5 3 -20 -1 -32 -9 -56
-36 -236 -26 -265 15 -12 17 -130 60 -203 75 -19 3 -48 17 -65 30 -16 12 -74
43 -127 69 -58 28 -98 53 -98 61 0 9 17 44 39 79 l38 64 42 -38 c43 -39 44
-51 5 -51 -21 0 -21 -2 -11 -36 6 -19 24 -46 40 -60 26 -22 38 -24 122 -24 81
0 96 3 104 18 7 14 6 25 -5 40 -13 19 -25 22 -93 22 -65 0 -81 3 -96 20 -25
28 -10 38 26 18 l29 -17 47 52 c65 72 164 167 175 167 4 0 8 6 8 14 0 13 13
31 101 143 48 62 179 312 179 344 0 10 9 26 19 36 31 29 161 451 207 673 9 47
18 126 18 176 1 77 -2 95 -18 113 -43 47 -56 16 -56 -129 0 -75 -7 -114 -54
-281 -30 -107 -58 -212 -62 -233 -4 -22 -17 -54 -29 -71 -11 -18 -27 -59 -34
-91 -8 -32 -24 -72 -37 -87 -13 -15 -26 -44 -30 -65 -3 -20 -10 -54 -14 -76
-10 -48 -123 -236 -171 -284 -20 -21 -45 -55 -57 -77 -28 -55 -206 -227 -227
-219 -17 7 -65 83 -65 103 0 6 32 53 71 104 87 112 162 239 240 403 32 68 66
127 74 130 9 4 15 19 15 36 0 17 15 65 34 107 19 42 39 88 45 102 8 22 14 26
36 21 48 -9 60 34 20 74 l-24 24 20 118 c16 93 76 360 83 369 1 1 22 -5 47
-14 67 -24 83 -14 75 47 l-7 50 65 0 c36 0 68 5 71 10 4 7 13 7 25 0 11 -6 50
-20 87 -31 64 -20 67 -20 80 -3 26 35 16 51 -44 70 l-58 19 -3 47 c-2 33 -9
52 -22 61 -19 13 -19 18 -6 103 36 227 41 343 40 939 -2 548 -3 594 -20 645
-14 41 -24 55 -38 55 -21 0 -32 -16 -41 -59 -5 -22 -9 -26 -18 -17 -17 17 -42
13 -65 -12 l-22 -24 22 -29 c12 -16 23 -30 24 -32 1 -2 14 4 28 13 42 28 63
-7 31 -49 -21 -27 -19 -70 5 -108 19 -31 20 -43 14 -241 -6 -185 -5 -214 11
-268 15 -49 16 -62 6 -69 -10 -6 -10 -9 -1 -15 9 -5 9 -9 1 -14 -7 -4 -15 -84
-21 -207 -17 -318 -38 -496 -77 -634 l-16 -58 -54 3 c-30 1 -59 7 -64 12 -6 6
-8 34 -3 72 l7 61 42 0 c30 0 45 5 49 16 12 31 5 43 -35 61 -37 16 -40 20 -35
47 3 15 6 34 6 41 0 7 10 15 23 19 49 12 63 102 22 134 -22 17 -25 27 -24 78
0 33 6 77 13 99 10 35 15 40 39 37 36 -4 52 30 43 92 -4 25 -9 46 -11 46 -2 0
-15 -4 -29 -9 -22 -9 -25 -7 -31 21 -4 17 -4 67 -1 112 4 44 7 102 8 129 1 52
3 54 37 30 23 -16 25 -15 42 6 19 23 18 53 -3 94 -11 22 -37 22 -54 0 -11 -17
-13 -16 -24 12 -7 18 -8 42 -3 65 8 32 12 35 40 32 36 -4 47 19 32 73 -9 31
-13 34 -38 29 -26 -6 -29 -3 -34 33 -4 21 -7 108 -7 194 l0 157 68 41 c37 22
77 42 89 44 13 2 33 13 45 24 21 19 67 33 111 34 20 0 22 18 5 54 -9 20 -18
25 -34 22 -14 -2 -25 2 -28 10 -6 14 28 15 50 0 17 -10 47 28 40 50 -3 11 -26
29 -51 41 l-45 22 0 78 c0 149 -31 336 -81 481 -16 47 -36 124 -45 170 -9 47
-35 155 -60 240 -24 86 -48 187 -54 225 -14 91 -25 109 -110 203 l-41 43 -81
3 c-80 3 -83 4 -109 38 -15 19 -34 57 -42 85 l-15 52 31 35 c28 30 35 33 57
25 13 -5 34 -7 45 -4z m161 -411 c12 -18 32 -70 44 -115 20 -74 21 -86 8 -108
-8 -14 -20 -24 -26 -22 -20 4 -13 -57 8 -78 11 -11 30 -20 43 -20 18 0 26 -10
41 -52 29 -81 32 -184 7 -231 -25 -48 -14 -79 32 -93 30 -8 33 -14 49 -84 50
-215 64 -420 39 -542 -16 -76 -30 -88 -96 -88 -54 0 -54 0 -64 38 -12 44 -43
354 -36 360 2 3 16 -3 31 -13 31 -20 44 -9 44 37 0 59 -34 79 -63 36 -8 -13
-18 -20 -22 -17 -3 4 -15 58 -25 120 -11 63 -22 124 -26 137 -8 27 11 30 37 6
10 -9 25 -14 34 -11 16 7 20 53 6 76 -11 18 -61 6 -61 -14 0 -8 -5 -15 -11
-15 -16 0 -39 64 -39 108 0 22 -13 86 -30 143 -31 110 -29 129 16 129 29 0 35
10 25 46 -6 25 -12 29 -44 30 -20 0 -39 2 -41 5 -3 2 -14 41 -26 87 -25 95
-20 127 16 118 13 -4 24 -2 24 2 0 5 10 21 21 36 27 35 57 31 85 -11z m-1863
-693 c12 0 8 -40 -5 -44 -7 -3 -31 -7 -54 -10 -40 -6 -41 -5 -37 22 8 50 9 51
50 41 21 -5 41 -9 46 -9z m-7 -207 c-28 -234 -37 -324 -47 -513 -7 -135 -9
-317 -5 -490 l7 -274 -20 18 c-13 12 -28 16 -44 12 -22 -5 -25 -1 -38 52 -31
127 5 1183 42 1215 16 15 68 36 88 37 23 0 24 -2 17 -57z m-58 -1345 c-3 -42
-4 -43 -42 -46 -66 -6 -69 36 -5 69 49 24 50 23 47 -23z m7 -145 c12 -31 18
-187 11 -266 -7 -67 -10 -77 -27 -77 -24 0 -34 22 -59 137 -20 91 -27 203 -13
216 3 4 23 7 44 7 26 0 39 -5 44 -17z m11075 -436 c0 -54 -8 -63 -31 -35 -22
24 -24 49 -7 66 24 24 38 13 38 -31z m-11055 2 c6 0 30 3 55 7 37 5 50 2 73
-16 39 -31 34 -55 -15 -87 -40 -25 -49 -26 -145 -24 -73 2 -111 -2 -135 -12
-39 -18 -370 -33 -462 -22 -55 7 -56 8 -56 40 0 31 4 35 48 49 111 36 177 47
347 56 99 5 181 13 183 18 1 5 24 5 50 0 26 -5 52 -9 57 -9z m-136 -254 c34
-96 26 -217 -20 -266 -27 -29 -34 -31 -74 -27 -47 6 -55 -4 -39 -47 17 -43
114 -34 192 18 l39 25 109 -20 c60 -11 132 -28 159 -38 97 -37 138 -43 201
-30 80 17 101 28 115 62 10 25 9 32 -11 53 l-23 25 -39 -35 c-43 -39 -104 -50
-94 -17 3 9 10 37 16 61 15 59 44 84 126 111 38 12 74 27 81 32 7 6 30 3 60
-6 26 -8 74 -22 105 -31 66 -18 85 -35 121 -108 69 -142 91 -264 85 -468 -5
-171 -4 -167 -86 -278 -57 -76 -81 -95 -106 -85 -11 4 -16 0 -16 -11 0 -15 -7
-17 -47 -11 -73 10 -132 51 -166 116 l-29 55 29 7 c15 4 44 10 64 13 68 10
118 87 83 126 -25 28 -51 23 -69 -11 -10 -20 -23 -30 -38 -30 -12 0 -56 -9
-97 -21 -77 -21 -117 -19 -212 11 -17 5 -28 5 -28 -1 0 -17 -18 -9 -65 30 -30
25 -60 40 -85 44 -51 7 -110 64 -110 106 0 24 -6 31 -31 40 -82 29 -175 1
-279 -83 -102 -83 -123 -114 -137 -210 -7 -45 -12 -98 -13 -118 0 -35 -15 -50
-33 -32 -11 11 -122 14 -142 4 -16 -9 -31 -7 -68 9 l-47 20 0 98 c0 145 34
250 117 359 58 77 214 254 224 254 5 0 18 -14 28 -31 l19 -32 12 39 c10 32 8
55 -9 134 -12 52 -21 119 -21 150 l0 57 73 10 c39 5 92 10 117 11 44 2 47 0
59 -33z m169 -96 c17 -27 32 -118 20 -125 -4 -3 -24 0 -43 7 -31 11 -35 17
-35 47 0 33 24 92 38 92 4 0 13 -9 20 -21z m11551 -123 c8 -6 39 -11 70 -11
l56 0 3 -36 c2 -21 -4 -64 -12 -97 -9 -33 -16 -76 -16 -96 0 -22 -7 -42 -19
-53 -11 -10 -22 -39 -26 -68 -15 -104 -47 -241 -65 -272 -11 -18 -22 -48 -26
-68 -3 -19 -16 -47 -27 -62 -12 -14 -24 -50 -28 -81 -5 -35 -16 -63 -30 -79
-15 -15 -24 -37 -25 -60 -1 -28 -8 -43 -32 -63 -19 -15 -32 -36 -32 -49 0 -12
-4 -20 -9 -17 -5 3 -12 -10 -15 -29 -4 -19 -16 -39 -26 -45 -11 -6 -24 -28
-30 -50 -6 -21 -19 -49 -30 -62 -31 -36 -101 -148 -122 -195 -10 -24 -24 -43
-31 -43 -7 0 -21 -15 -32 -32 -11 -18 -27 -44 -36 -58 -8 -14 -41 -42 -73 -63
-32 -21 -67 -54 -78 -73 -11 -19 -26 -34 -34 -34 -7 0 -38 -20 -69 -45 -31
-25 -68 -51 -83 -57 -15 -7 -54 -37 -88 -68 -33 -31 -106 -83 -161 -116 -81
-48 -107 -60 -132 -56 -17 2 -31 10 -31 17 0 7 -9 11 -24 8 -17 -4 -29 3 -45
22 -25 33 -26 46 -5 92 12 24 19 31 25 21 6 -9 13 -2 24 24 8 21 15 42 15 47
0 5 8 8 17 7 18 -1 41 35 63 98 8 22 13 27 19 18 8 -13 20 9 36 64 3 12 21 35
40 53 19 17 35 39 35 49 0 9 9 23 20 30 11 6 25 32 31 58 8 32 18 48 34 54 24
9 57 83 106 237 13 43 29 73 38 76 11 3 44 88 103 268 88 267 108 336 127 443
7 38 20 69 35 85 13 15 42 54 65 89 25 37 49 62 60 62 17 0 117 89 136 122 11
19 293 119 310 110 6 -3 16 -10 24 -16z m-9659 -204 c0 -15 -2 -15 -10 -2 -13
20 -13 33 0 25 6 -3 10 -14 10 -23z m40 3 c0 -8 -4 -15 -9 -15 -13 0 -22 16
-14 24 11 11 23 6 23 -9z m-2486 -710 c10 -8 23 -12 28 -9 4 3 11 -2 15 -12
13 -35 -89 -88 -134 -69 -10 5 -28 7 -40 6 -12 -1 -43 7 -68 18 l-46 20 17 26
c15 23 22 25 58 20 23 -3 57 -1 76 4 51 13 73 12 94 -4z m10214 -1342 c13 -25
3 -93 -13 -93 -8 0 -44 -16 -81 -35 -77 -40 -85 -42 -108 -16 -12 14 -16 32
-14 67 3 45 5 49 31 52 15 2 34 -4 43 -12 18 -19 44 -9 68 25 8 12 19 18 25
15 5 -4 12 -2 16 4 9 15 23 12 33 -7z m-7978 -124 c-7 -11 -14 -19 -16 -16 -7
7 7 37 17 37 6 0 5 -9 -1 -21z m591 -17 c29 -24 20 -50 -21 -58 -37 -8 -44
-18 -36 -49 8 -30 47 -58 70 -49 12 5 16 20 16 64 0 54 2 58 25 63 40 7 49
-21 24 -77 -11 -26 -17 -55 -14 -66 4 -13 1 -22 -8 -26 -8 -3 -22 -25 -32 -50
-15 -39 -20 -44 -38 -38 -12 4 -30 7 -41 6 -14 -1 -17 4 -11 21 14 48 18 107
6 107 -25 0 -68 -30 -104 -74 -39 -47 -54 -53 -85 -37 -9 5 -32 15 -49 21 -40
15 -41 33 -7 83 14 21 27 50 28 64 2 21 12 30 47 43 43 17 44 17 54 -4 25 -50
94 -10 83 49 -5 23 -2 25 32 25 22 0 47 -8 61 -18z m7081 -40 c3 -10 -1 -27
-8 -37 -12 -17 -14 -17 -14 -2 0 9 -4 17 -10 17 -5 0 -10 -7 -10 -15 0 -8 -8
-15 -18 -15 -10 0 -23 -5 -30 -12 -8 -8 -12 -8 -12 -1 0 6 7 14 16 17 9 3 14
12 11 19 -6 16 29 41 38 27 10 -16 25 -12 19 5 -4 8 -2 15 4 15 5 0 12 -8 14
-18z m-177 -72 c3 -5 2 -10 -4 -10 -5 0 -13 5 -16 10 -3 6 -2 10 4 10 5 0 13
-4 16 -10z m-6719 -75 c3 -14 12 -25 20 -25 8 0 14 -10 14 -25 0 -22 -3 -25
-24 -19 -13 3 -27 1 -30 -5 -10 -16 -20 -13 -34 10 -11 17 -10 25 8 55 26 40
37 43 46 9z m61 -67 c-3 -8 -6 -5 -6 6 -1 11 2 17 5 13 3 -3 4 -12 1 -19z
m4407 -63 c3 -8 1 -15 -4 -15 -6 0 -10 7 -10 15 0 8 2 15 4 15 2 0 6 -7 10
-15z m-3358 -32 c-10 -10 -19 5 -10 18 6 11 8 11 12 0 2 -7 1 -15 -2 -18z m38
12 c3 -9 0 -15 -9 -15 -8 0 -15 7 -15 15 0 8 4 15 9 15 5 0 11 -7 15 -15z m36
-3 c0 -5 -7 -17 -15 -28 -15 -19 -20 -8 -9 20 6 17 24 22 24 8z m45 -12 c3 -5
2 -10 -4 -10 -5 0 -13 5 -16 10 -3 6 -2 10 4 10 5 0 13 -4 16 -10z"/>
<path d="M7865 8426 c-28 -42 -23 -66 15 -80 19 -7 42 -16 51 -20 11 -5 19 1
27 19 20 44 14 59 -34 81 l-45 22 -14 -22z"/>
<path d="M6890 8384 c-15 -39 -13 -44 25 -60 51 -21 65 -18 65 14 0 64 -70
100 -90 46z"/>
<path d="M7353 8396 c-24 -11 -25 -16 -14 -55 6 -22 22 -31 61 -33 8 -1 18 -6
22 -11 9 -15 36 9 40 36 3 25 -45 73 -62 62 -5 -3 -10 -1 -10 4 0 13 -7 12
-37 -3z"/>
<path d="M6370 8361 c0 -11 -2 -25 -5 -33 -4 -9 9 -18 40 -27 42 -12 47 -12
60 5 16 21 18 35 9 58 -4 12 -20 16 -55 16 -42 0 -49 -3 -49 -19z"/>
<path d="M8263 8363 c-29 -6 -31 -51 -4 -84 18 -22 19 -23 45 -5 28 17 50 61
43 81 -5 11 -46 15 -84 8z"/>
<path d="M4920 8284 c0 -50 2 -55 18 -49 9 4 27 10 40 12 13 3 22 13 22 23 0
18 -53 70 -71 70 -5 0 -9 -25 -9 -56z"/>
<path d="M5849 8290 c-9 -10 -22 -19 -29 -22 -22 -7 -3 -52 27 -65 15 -7 29
-10 32 -5 3 4 15 8 26 10 38 6 45 12 45 40 0 20 -8 32 -30 45 -20 12 -30 14
-30 6 0 -8 -4 -8 -12 -2 -9 7 -18 4 -29 -7z"/>
<path d="M9236 8289 c-34 -27 -36 -74 -3 -83 37 -10 64 -7 77 9 11 13 9 20 -9
38 -11 13 -21 31 -21 40 0 22 -12 21 -44 -4z"/>
<path d="M5422 8188 l3 -43 40 3 c51 5 56 11 47 47 -7 27 -13 30 -51 33 l-42
3 3 -43z"/>
<path d="M4550 8186 c0 -8 -3 -21 -6 -30 -4 -10 7 -23 33 -39 35 -23 40 -23
56 -9 28 25 21 58 -17 76 -42 20 -66 20 -66 2z"/>
<path d="M4250 8180 c0 -6 -11 -16 -25 -22 -30 -13 -33 -48 -7 -71 23 -21 46
-22 62 -3 6 8 18 12 26 9 10 -4 14 2 14 20 0 16 -12 33 -35 51 -19 15 -35 22
-35 16z"/>
<path d="M3860 8100 c-28 -28 -26 -58 6 -71 34 -12 58 -4 78 26 34 52 -38 91
-84 45z"/>
<path d="M5043 8015 c-20 -22 -15 -42 15 -64 28 -20 29 -20 45 0 22 25 21 31
-6 57 -27 25 -37 27 -54 7z"/>
<path d="M4010 7958 c0 -51 13 -68 52 -68 33 0 50 27 46 73 -3 31 -5 32 -50
35 l-48 3 0 -43z"/>
<path d="M5680 7945 c0 -32 4 -45 14 -45 8 0 16 -5 18 -10 2 -7 13 -6 31 2 22
10 27 19 25 41 -2 24 -10 32 -43 43 -22 7 -41 14 -42 14 -2 0 -3 -20 -3 -45z"/>
<path d="M4406 7864 c-24 -61 29 -118 55 -60 17 37 4 76 -25 76 -13 0 -27 -7
-30 -16z"/>
<path d="M5144 7795 c-10 -26 5 -61 31 -73 32 -15 31 -15 47 2 9 8 13 27 10
50 -4 35 -6 36 -43 36 -26 0 -42 -5 -45 -15z"/>
<path d="M4082 7723 c-11 -22 -6 -41 21 -70 21 -24 47 -31 47 -13 0 6 7 10 15
10 26 0 19 59 -7 69 -59 22 -67 22 -76 4z"/>
<path d="M9252 7394 c-21 -23 -12 -84 14 -84 7 0 17 -7 22 -17 8 -14 13 -12
41 16 17 17 31 34 31 37 0 17 -23 44 -39 44 -10 0 -21 3 -25 7 -12 12 -31 11
-44 -3z"/>
<path d="M6554 7386 c-3 -8 -4 -29 -2 -48 3 -31 5 -33 46 -36 l42 -3 0 39 c0
36 -3 41 -31 51 -41 14 -49 14 -55 -3z"/>
<path d="M9485 7354 c-19 -14 -19 -34 1 -62 13 -18 22 -22 44 -17 16 4 39 1
51 -6 19 -10 25 -9 36 7 7 10 13 35 13 56 l0 38 -65 -2 c-35 -2 -71 -8 -80
-14z"/>
<path d="M9761 7335 c-16 -45 -7 -75 24 -75 13 0 26 -4 30 -9 3 -5 18 -8 33
-7 22 3 28 9 30 34 4 40 -38 87 -68 77 -11 -4 -20 -2 -20 4 0 23 -17 9 -29
-24z"/>
<path d="M9984 7273 c-5 -16 -3 -28 4 -31 6 -2 8 -11 5 -19 -5 -12 -2 -15 11
-10 10 4 19 1 22 -8 4 -8 11 -12 18 -8 6 4 29 8 51 8 39 0 40 1 43 36 3 35 3
35 -48 47 -81 19 -99 16 -106 -15z"/>
<path d="M6472 7255 c-7 -14 -12 -37 -12 -50 0 -20 7 -25 36 -31 43 -8 57 7
49 51 -6 34 -12 40 -41 49 -16 5 -23 0 -32 -19z"/>
<path d="M10247 7259 c-7 -27 2 -79 14 -79 5 0 9 6 9 13 1 6 8 -1 16 -17 l16
-28 28 33 c27 32 41 67 21 55 -5 -3 -11 4 -15 17 -4 17 -13 23 -44 25 -33 2
-40 -1 -45 -19z"/>
<path d="M5146 7233 c-3 -4 -6 -21 -6 -39 0 -35 21 -54 60 -54 18 0 21 5 18
37 -2 30 -8 39 -34 49 -18 7 -34 10 -38 7z"/>
<path d="M4970 7186 c0 -38 14 -51 50 -50 84 4 80 2 80 38 0 38 -14 46 -87 46
-42 0 -43 -1 -43 -34z"/>
<path d="M7985 7200 c-3 -6 -29 -9 -58 -9 -29 1 -63 -3 -77 -9 -14 -5 -77 -8
-140 -7 -63 1 -120 -3 -127 -8 -7 -5 -20 -4 -33 3 -16 9 -25 8 -36 0 -7 -7
-23 -10 -34 -7 -10 3 -38 -2 -61 -10 -33 -11 -44 -11 -50 -2 -6 10 -11 10 -22
0 -12 -9 -17 -9 -23 0 -5 8 -32 10 -98 5 -257 -18 -262 -19 -249 -61 3 -11 11
-23 17 -27 17 -11 85 -9 107 3 15 8 24 7 35 -2 12 -10 17 -10 23 0 5 8 21 10
48 5 24 -4 49 -1 62 6 17 9 26 9 37 -1 11 -9 24 -9 60 1 30 9 48 10 55 3 7 -7
25 -7 52 -1 23 5 51 10 62 11 11 1 25 6 32 10 7 4 25 1 41 -7 16 -8 33 -12 36
-8 4 3 40 5 81 3 41 -1 82 2 94 9 16 8 21 8 21 -1 0 -8 4 -8 15 1 8 7 22 9 32
6 9 -4 20 -2 23 5 6 8 31 8 100 -1 74 -11 93 -11 100 0 5 9 13 9 25 3 12 -7
27 -7 46 1 21 7 37 7 59 -1 17 -6 30 -8 30 -3 0 10 91 7 107 -3 6 -4 13 -2 15
4 7 20 171 9 184 -12 3 -6 11 -3 18 6 10 14 19 14 60 5 27 -6 74 -8 105 -4 31
3 73 2 94 -4 20 -6 39 -6 42 -2 6 10 85 7 102 -3 6 -4 14 -1 16 5 4 10 6 10 6
1 1 -7 7 -10 14 -8 6 2 33 6 60 9 39 4 47 2 47 -12 0 -15 2 -15 10 -2 11 18
37 19 70 3 14 -7 26 -9 28 -3 2 5 10 6 19 3 13 -5 14 0 8 28 -15 70 -6 67
-212 71 -104 2 -192 2 -197 0 -15 -8 -220 -1 -295 9 -45 6 -76 7 -80 1 -7 -11
-42 -12 -56 -2 -5 4 -39 4 -75 0 -40 -5 -72 -5 -83 2 -14 7 -22 7 -27 -2 -6
-9 -13 -9 -28 -1 -16 8 -21 7 -26 -6 -6 -13 -18 -15 -80 -10 -40 4 -85 11 -99
16 -17 7 -28 7 -32 1z"/>
<path d="M4763 7170 c-29 -12 -30 -49 -4 -81 19 -23 19 -24 40 -5 23 21 27 47
11 77 -12 21 -15 22 -47 9z"/>
<path d="M9602 7125 c-25 -55 -12 -75 49 -75 17 0 40 -5 51 -11 15 -8 22 -8
28 1 6 9 9 9 15 0 6 -9 26 -11 71 -6 49 5 69 3 87 -9 15 -10 35 -13 54 -9 20
4 39 1 55 -10 18 -11 59 -17 154 -21 149 -5 185 -9 274 -29 36 -7 67 -12 69
-10 2 1 6 23 8 47 l5 44 -58 7 c-33 4 -70 8 -84 9 -14 1 -27 4 -30 7 -20 20
-50 24 -123 18 -45 -4 -86 -7 -92 -8 -16 -1 -98 16 -135 28 -42 13 -281 36
-330 31 -21 -3 -39 1 -45 9 -9 11 -13 8 -23 -13z"/>
<path d="M5816 7131 c-7 -10 50 -91 64 -91 6 0 10 5 10 10 0 6 6 10 14 10 8 0
18 4 21 10 7 11 -12 51 -29 62 -15 11 -74 10 -80 -1z"/>
<path d="M4505 7104 c-46 -46 26 -90 99 -60 35 15 42 28 30 60 -9 23 -106 22
-129 0z"/>
<path d="M5315 7042 c-5 -4 -10 -22 -10 -41 l0 -33 68 -4 c64 -3 68 -2 79 22
15 32 4 42 -52 48 -25 2 -52 7 -60 10 -8 3 -19 2 -25 -2z"/>
<path d="M6806 6519 c-11 -57 -7 -73 28 -101 19 -16 37 -28 40 -28 4 0 6 20 6
45 0 39 -5 52 -34 81 l-33 34 -7 -31z"/>
<path d="M6685 6504 c-22 -23 -15 -46 19 -63 53 -25 91 30 44 63 -28 20 -42
20 -63 0z"/>
<path d="M8935 5397 c-5 -12 -1 -22 11 -32 16 -11 21 -11 35 1 14 13 18 13 29
-1 22 -27 23 -7 1 21 -14 17 -21 21 -21 11 0 -26 -30 -29 -39 -4 -8 20 -10 20
-16 4z"/>
<path d="M8990 5340 c0 -5 5 -10 11 -10 5 0 7 5 4 10 -3 6 -8 10 -11 10 -2 0
-4 -4 -4 -10z"/>
<path d="M9057 5333 c-12 -12 -7 -22 8 -17 11 5 17 -3 21 -25 7 -33 24 -53 24
-28 0 19 -30 77 -39 77 -4 0 -11 -3 -14 -7z"/>
<path d="M9060 5293 c0 -4 5 -15 10 -23 8 -13 10 -13 10 2 0 9 -4 20 -10 23
-5 3 -10 3 -10 -2z"/>
<path d="M10272 5238 c-12 -38 -11 -43 9 -64 16 -17 31 -23 56 -21 31 2 33 4
33 38 0 38 -18 61 -60 77 -24 9 -27 7 -38 -30z"/>
<path d="M9753 5253 c-13 -2 -23 -12 -23 -21 0 -9 -3 -28 -7 -41 -4 -18 -2
-22 8 -19 8 3 25 -3 38 -14 19 -14 26 -16 33 -6 6 10 10 10 17 -1 8 -12 11
-10 16 11 4 14 5 40 3 59 -3 30 -7 34 -33 35 -16 1 -40 0 -52 -3z"/>
<path d="M10614 5225 c0 -22 5 -35 13 -35 8 0 16 -7 19 -15 7 -17 44 -21 44
-5 0 6 5 10 11 10 5 0 8 -4 5 -9 -3 -5 6 -8 20 -7 23 1 25 4 19 33 -5 28 -3
32 11 26 12 -4 15 -1 12 13 -3 16 -14 19 -79 22 l-75 3 0 -36z"/>
<path d="M5440 5240 c0 -5 -6 -10 -14 -10 -20 0 -30 -35 -17 -58 16 -30 35
-42 59 -35 26 7 29 40 7 83 -15 29 -35 40 -35 20z"/>
<path d="M9976 5233 c-9 -24 -7 -93 3 -93 5 0 12 6 14 13 3 6 6 2 6 -10 1 -19
4 -21 32 -13 18 5 35 7 39 5 4 -2 13 14 20 37 11 40 11 43 -11 61 -21 17 -24
17 -27 3 -4 -17 -18 -21 -26 -7 -10 16 -45 19 -50 4z"/>
<path d="M5165 5208 c-40 -14 -55 -27 -55 -47 0 -23 46 -66 55 -52 3 6 14 11
23 11 9 0 25 7 35 14 17 13 17 15 -4 50 -11 20 -22 36 -22 35 -1 0 -15 -5 -32
-11z"/>
<path d="M8000 5068 c-102 -5 -222 -7 -267 -5 -52 2 -83 0 -83 -7 0 -6 -5 -5
-12 2 -22 22 -29 13 -26 -30 l3 -43 75 0 c41 -1 83 3 92 9 11 7 21 6 30 -1 13
-11 140 -9 157 2 5 3 32 0 61 -7 38 -9 59 -9 81 -1 16 6 31 8 33 4 7 -11 325
-2 347 9 12 7 20 7 24 0 3 -5 28 -10 54 -10 26 0 53 -6 60 -12 11 -10 14 -10
18 0 3 6 11 12 18 12 7 0 15 -6 18 -12 3 -10 9 -8 24 4 15 14 22 15 31 6 8 -8
21 -9 47 -1 29 9 35 9 35 -4 0 -11 5 -13 18 -7 31 14 181 7 207 -11 17 -11 24
-10 40 1 22 16 81 19 90 4 3 -6 17 -7 31 -4 13 3 32 3 41 -1 10 -4 34 -9 53
-10 19 -1 42 -5 51 -9 8 -4 47 -3 86 2 39 4 93 7 120 5 70 -6 84 -6 131 0 26
4 42 2 42 -5 0 -7 5 -6 14 1 10 9 16 9 21 1 4 -6 35 -10 73 -10 37 1 126 1
197 0 l130 -2 3 29 c4 36 -30 72 -51 55 -9 -8 -26 -8 -57 -1 -25 6 -115 11
-200 12 -124 2 -157 5 -167 17 -11 13 -12 13 -13 0 0 -13 -26 -15 -159 -18
-97 -2 -169 2 -187 8 -20 8 -30 8 -32 1 -2 -6 -9 -8 -15 -4 -7 4 -44 9 -84 10
-39 1 -90 7 -112 12 -24 5 -41 5 -43 -1 -2 -5 -23 -5 -53 1 -69 13 -769 20
-995 9z"/>
<path d="M5995 4762 c-3 -19 -4 -37 -1 -40 3 -3 31 -7 61 -10 51 -4 55 -3 55
17 0 12 -6 21 -15 21 -8 0 -19 8 -24 19 -6 10 -24 21 -40 23 -27 4 -30 1 -36
-30z"/>
<path d="M6110 3802 c-9 -26 -10 -37 -1 -40 6 -2 11 -10 11 -18 0 -8 10 -14
25 -14 15 0 25 6 25 14 0 7 7 19 15 26 18 15 6 34 -35 55 -26 13 -27 13 -40
-23z"/>
<path d="M6136 3688 c-19 -73 9 -146 40 -103 7 11 18 26 24 33 8 9 3 22 -21
52 -18 22 -33 40 -35 40 -1 0 -4 -10 -8 -22z"/>
<path d="M5991 2999 c-13 -38 -14 -37 28 -45 l32 -7 -3 39 c-2 31 -7 40 -24
42 -17 2 -24 -5 -33 -29z"/>
<path d="M10690 2980 c-12 -24 -16 -40 -9 -40 6 0 9 -7 6 -14 -4 -10 -1 -13 9
-9 7 3 14 1 14 -4 0 -5 13 -10 29 -10 45 0 47 38 5 82 l-33 36 -21 -41z"/>
<path d="M7007 2853 c-4 -3 -7 -11 -7 -17 0 -6 5 -5 12 2 6 6 9 14 7 17 -3 3
-9 2 -12 -2z"/>
<path d="M10310 2836 c-6 -13 -9 -32 -6 -42 6 -19 66 -89 69 -82 1 1 9 17 18
33 22 43 14 67 -30 92 l-38 22 -13 -23z"/>
<path d="M10008 2762 c-14 -2 -32 -9 -38 -17 -28 -34 32 -113 65 -85 8 7 17
28 21 47 8 42 -8 60 -48 55z"/>
<path d="M9735 2750 c-4 -6 -25 -10 -48 -8 -41 3 -42 2 -48 -36 -4 -24 -2 -39
5 -42 6 -2 30 -10 53 -17 l41 -14 17 43 c9 24 15 51 13 61 -4 20 -24 28 -33
13z"/>
<path d="M9383 2713 c-4 -10 -11 -21 -16 -24 -18 -13 4 -45 41 -59 20 -8 40
-16 43 -18 7 -3 54 68 48 71 -100 54 -106 56 -116 30z"/>
<path d="M5354 2686 c-5 -30 -2 -39 17 -56 34 -29 63 -22 67 15 2 28 -14 46
-70 73 -4 2 -10 -13 -14 -32z"/>
<path d="M8844 2697 c-6 -7 -13 -26 -17 -42 -5 -26 0 -35 34 -64 22 -18 42
-32 43 -30 2 2 8 28 13 57 9 46 8 52 -5 47 -10 -3 -24 4 -36 19 -16 20 -23 22
-32 13z"/>
<path d="M9107 2680 c-9 -43 1 -60 33 -60 19 0 30 -6 33 -17 4 -17 5 -17 6 0
0 9 8 17 16 17 10 0 15 10 15 30 0 19 -5 30 -14 30 -8 0 -16 7 -20 15 -3 9
-18 15 -34 15 -25 0 -30 -5 -35 -30z"/>
<path d="M5585 2648 c8 -40 32 -60 65 -56 19 2 26 10 28 31 5 40 -14 57 -60
57 -39 0 -40 0 -33 -32z"/>
<path d="M5817 2673 c-4 -3 -7 -21 -7 -40 0 -27 5 -35 25 -43 36 -14 33 -46
-5 -54 -18 -3 -39 0 -50 6 -16 10 -22 8 -40 -11 -48 -56 -14 -71 156 -71 68 0
124 -4 124 -8 0 -5 56 -7 125 -4 69 3 125 1 125 -4 0 -12 123 -11 132 1 5 6
18 3 36 -7 26 -16 31 -16 42 -3 10 12 16 13 27 4 10 -9 23 -9 54 0 28 9 44 9
53 2 9 -7 16 -7 24 1 8 8 15 8 26 -1 9 -8 16 -8 20 -2 7 11 239 7 269 -4 10
-4 29 -3 43 4 17 7 31 8 43 1 10 -5 48 -9 83 -8 36 0 71 -2 77 -7 18 -11 71
-13 77 -3 3 5 11 5 17 0 14 -11 96 -20 99 -11 2 3 68 3 148 -1 83 -4 150 -3
157 2 7 6 14 5 18 -3 5 -7 21 -9 41 -6 19 3 36 2 39 -2 5 -9 147 -2 155 8 3 3
12 6 20 6 10 0 16 12 18 32 3 31 2 32 -44 39 -33 5 -55 2 -79 -9 -20 -10 -37
-12 -46 -6 -8 5 -47 9 -87 9 -40 0 -88 6 -107 14 -30 13 -34 13 -40 -2 -6 -16
-7 -16 -19 1 -16 21 -26 22 -26 3 0 -11 -8 -12 -41 -5 -22 5 -45 6 -51 3 -16
-10 -171 -4 -184 7 -8 7 -14 6 -17 -3 -3 -10 -10 -8 -27 7 -24 22 -97 24 -488
16 l-183 -4 -17 -31 c-14 -27 -17 -28 -20 -11 -9 44 -16 45 -222 45 -221 0
-228 2 -216 64 6 32 4 37 -31 60 -34 24 -38 25 -45 9 -13 -34 -8 -70 13 -89
l21 -19 -28 -6 c-68 -15 -103 -10 -121 17 -16 24 -16 27 0 36 10 5 17 21 17
38 0 23 -6 30 -31 39 -37 13 -43 13 -52 4z"/>
<path d="M6263 2664 c-38 -16 -42 -36 -13 -66 18 -19 22 -20 45 -8 28 15 30
23 12 61 -11 25 -13 26 -44 13z"/>
<path d="M9435 2559 c-82 -4 -170 -11 -195 -15 -25 -4 -61 -8 -80 -9 -19 -1
-46 -5 -60 -9 -14 -4 -65 -3 -115 2 -76 7 -95 6 -120 -8 -25 -13 -47 -15 -125
-9 -125 9 -272 10 -338 2 -45 -5 -55 -10 -63 -30 -7 -20 -4 -31 16 -55 14 -16
25 -25 25 -19 0 6 10 16 22 22 18 9 24 8 34 -5 11 -16 13 -16 22 0 9 16 15 17
48 6 25 -7 42 -8 48 -2 14 14 64 12 68 -2 4 -10 10 -10 32 0 22 10 37 10 69 0
23 -6 48 -16 55 -21 8 -7 12 -5 12 7 0 13 10 15 53 12 28 -2 57 -1 62 2 13 9
69 9 75 1 3 -3 30 -3 60 2 109 17 120 17 120 6 0 -8 3 -8 9 1 11 18 134 26
201 14 30 -6 57 -7 60 -3 3 5 23 7 45 6 22 -1 45 1 50 4 20 11 215 10 215 -1
0 -6 5 -7 13 -2 14 11 38 11 54 1 8 -5 16 5 24 32 16 53 8 69 -35 69 -19 0
-39 3 -44 6 -5 3 -25 1 -43 -6 -25 -9 -34 -9 -37 0 -4 13 -9 13 -237 1z"/>
<path d="M4967 2043 c-9 -8 -9 -46 -1 -67 13 -34 110 -9 120 31 4 16 2 28 -7
34 -16 10 -103 12 -112 2z"/>
<path d="M5946 2004 c-5 -20 -1 -31 15 -45 22 -19 23 -19 45 2 19 18 21 25 12
45 -16 35 -63 34 -72 -2z"/>
<path d="M5860 1961 c0 -6 -13 -11 -30 -11 -26 0 -30 -4 -30 -26 0 -55 33 -80
64 -48 18 17 22 79 6 89 -5 3 -10 1 -10 -4z"/>
<path d="M5283 1933 c-17 -6 -16 -20 5 -70 19 -49 22 -50 48 -25 24 21 21 77
-4 86 -9 3 -21 8 -27 10 -5 2 -16 2 -22 -1z"/>
<path d="M6270 1752 c0 -59 5 -66 35 -46 35 23 37 49 4 73 -15 12 -31 21 -34
21 -3 0 -5 -22 -5 -48z"/>
<path d="M8198 1773 c-25 -4 -28 -9 -28 -40 0 -25 7 -42 24 -58 l23 -21 27 22
c30 27 34 64 8 87 -10 10 -20 16 -23 16 -2 -1 -16 -4 -31 -6z"/>
<path d="M9620 1725 c-6 -15 -6 -34 0 -49 10 -27 30 -44 30 -25 0 6 10 -1 22
-16 23 -29 34 -22 38 25 4 46 0 55 -31 73 -40 23 -48 22 -59 -8z"/>
<path d="M10129 1668 c-6 -11 -5 -78 1 -78 4 0 11 -10 14 -22 6 -21 7 -21 17
-5 6 11 22 17 44 17 35 0 35 0 35 45 l0 45 -55 0 c-30 0 -56 -1 -56 -2z"/>
<path d="M4810 1640 c-7 -14 -6 -30 6 -60 9 -22 19 -40 23 -40 32 0 43 84 14
106 -24 18 -31 17 -43 -6z"/>
<path d="M5226 1496 c-8 -42 2 -69 21 -61 11 3 13 1 9 -10 -8 -21 10 -19 34 5
24 24 25 32 5 70 -23 44 -61 42 -69 -4z"/>
<path d="M7294 1508 c-6 -10 -7 -88 -1 -94 1 -1 14 -5 28 -9 18 -4 31 -1 42
10 15 15 15 20 1 53 -20 49 -53 68 -70 40z"/>
<path d="M9162 1458 c-10 -35 0 -68 20 -68 6 0 20 -7 30 -16 17 -16 19 -15 33
19 26 63 16 87 -39 93 -33 4 -36 2 -44 -28z"/>
<path d="M8719 1313 c-16 -42 -10 -57 32 -81 47 -27 60 -21 61 27 1 36 -23 67
-58 74 -20 3 -27 -1 -35 -20z"/>
<path d="M5785 1272 c-8 -22 -6 -54 4 -47 6 3 13 -1 18 -9 7 -13 12 -13 39 0
26 13 30 19 26 45 -4 28 -7 30 -43 27 -22 -1 -41 -8 -44 -16z"/>
<path d="M7694 1245 c-10 -56 -3 -70 36 -70 30 0 35 4 44 33 11 38 4 48 -42
61 -30 9 -32 8 -38 -24z"/>
<path d="M10005 1196 c-9 -21 -10 -38 -3 -56 11 -30 37 -60 52 -60 18 0 58 82
46 94 -5 5 -10 19 -10 31 0 17 -6 21 -36 21 -31 0 -39 -4 -49 -30z"/>
<path d="M8124 1196 c-16 -64 36 -102 86 -64 53 39 34 82 -37 86 -38 3 -43 0
-49 -22z"/>
<path d="M9727 1201 c-5 -21 -8 -22 -21 -11 -13 10 -16 10 -16 -5 0 -11 -5
-15 -15 -11 -12 4 -15 -2 -15 -28 0 -30 5 -36 43 -55 24 -12 43 -17 45 -11 2
6 10 10 17 10 7 0 15 9 18 20 3 11 1 20 -5 20 -6 0 -8 7 -4 15 3 8 1 15 -4 15
-6 0 -16 15 -23 32 -13 32 -14 32 -20 9z"/>
<path d="M5731 1173 c-1 -12 4 -25 9 -28 12 -7 12 2 0 30 -8 19 -9 19 -9 -2z"/>
<path d="M4963 1140 c-15 -40 2 -74 38 -78 22 -3 27 2 32 27 5 24 1 36 -19 56
-32 32 -37 31 -51 -5z"/>
<path d="M4737 1124 c-17 -17 -5 -62 23 -89 l29 -28 12 26 c14 31 -5 91 -26
83 -7 -2 -17 0 -22 5 -5 5 -12 6 -16 3z"/>
<path d="M7290 1094 c0 -31 26 -94 39 -94 28 0 64 82 45 100 -5 4 -26 10 -46
13 -35 5 -38 4 -38 -19z"/>
<path d="M4393 1043 c-32 -12 0 -93 36 -93 25 0 34 48 15 78 -14 22 -27 25
-51 15z"/>
<path d="M8353 984 c-13 -14 -23 -31 -23 -39 0 -23 12 -45 21 -40 4 3 16 -9
26 -27 l17 -33 7 30 c11 50 10 110 -3 123 -16 16 -19 15 -45 -14z"/>
<path d="M9186 985 c-3 -8 -12 -15 -21 -15 -18 0 -19 -16 -4 -59 6 -17 18 -31
26 -31 8 0 11 5 7 11 -4 7 0 9 13 5 26 -8 45 15 41 51 -5 43 -49 71 -62 38z"/>
<path d="M5123 923 c-35 -7 -31 -56 6 -82 l28 -20 16 39 c14 36 14 40 -2 54
-10 9 -19 15 -22 15 -2 -1 -14 -4 -26 -6z"/>
<path d="M4685 899 c-5 -5 -19 -16 -30 -23 -19 -13 -19 -15 8 -55 15 -23 32
-39 38 -35 20 12 28 52 18 88 -10 37 -17 42 -34 25z"/>
<path d="M9485 892 c-16 -9 -32 -18 -34 -19 -2 -1 0 -18 3 -38 6 -30 10 -35
27 -30 12 4 19 2 19 -6 0 -10 3 -10 11 -2 6 6 18 9 25 6 9 -3 14 2 14 15 0 12
5 24 10 27 20 12 11 52 -12 59 -30 8 -29 8 -63 -12z"/>
<path d="M9890 803 c0 -55 14 -62 29 -14 15 52 14 57 -9 57 -17 0 -20 -7 -20
-43z"/>
<path d="M9861 795 l1 -50 10 38 c7 28 7 42 -1 50 -8 8 -11 -2 -10 -38z"/>
<path d="M8667 803 c-8 -43 3 -85 21 -78 8 3 23 -2 33 -11 17 -15 19 -15 19
-2 0 9 9 26 19 39 17 21 18 27 5 51 -14 27 -34 38 -34 18 0 -6 -9 -6 -26 0
-33 13 -31 14 -37 -17z"/>
<path d="M7826 811 c-4 -6 -16 -11 -27 -11 -16 0 -19 -7 -19 -45 0 -38 3 -45
20 -45 11 0 20 -4 20 -10 0 -5 6 -10 13 -10 17 0 43 80 29 89 -5 3 -13 14 -19
25 -7 12 -13 15 -17 7z"/>
<path d="M9944 795 c2 -16 7 -29 12 -28 15 3 15 18 0 38 -14 19 -15 18 -12
-10z"/>
<path d="M6236 794 c-13 -33 -6 -64 19 -80 23 -15 27 -15 50 0 35 23 35 73 -1
86 -37 14 -61 12 -68 -6z"/>
<path d="M6938 782 c-42 -30 -47 -53 -20 -80 16 -16 22 -17 37 -5 11 7 26 13
36 13 24 0 29 21 14 57 -18 43 -25 45 -67 15z"/>
<path d="M9776 801 c-4 -6 -30 -23 -57 -36 -42 -22 -49 -30 -49 -54 0 -27 3
-29 47 -33 43 -3 49 -1 85 37 20 22 37 47 37 55 0 10 -2 11 -6 3 -3 -8 -12 -3
-27 14 -16 18 -25 23 -30 14z"/>
<path d="M4250 750 c0 -33 4 -50 13 -50 6 0 21 -3 32 -5 28 -8 47 35 33 76 -8
24 -15 29 -44 29 l-34 0 0 -50z"/>
<path d="M5370 774 c0 -5 -10 -14 -22 -19 -12 -6 -23 -15 -25 -21 -6 -19 31
-53 62 -56 29 -3 30 -1 33 42 2 25 0 41 -4 37 -4 -4 -16 0 -26 10 -10 9 -18
12 -18 7z"/>
<path d="M9251 741 c-13 -46 -15 -103 -2 -82 7 11 11 9 20 -8 16 -29 28 -26
51 12 27 44 26 51 -19 86 l-38 30 -12 -38z"/>
<path d="M7313 728 c-5 -7 -9 -26 -9 -41 1 -22 8 -32 33 -42 30 -13 34 -12 48
8 20 28 19 73 -1 81 -26 10 -61 7 -71 -6z"/>
<path d="M4906 711 c-20 -22 -18 -78 2 -73 7 1 21 -2 31 -8 16 -8 20 -4 30 37
10 37 9 48 -1 54 -21 14 -44 10 -62 -10z"/>
<path d="M8130 711 c-29 -56 10 -111 50 -71 24 24 25 38 4 68 -19 27 -40 28
-54 3z"/>
<path d="M5903 712 c-6 -4 -17 -20 -22 -35 -9 -23 -8 -32 6 -45 26 -26 61 -23
66 6 10 54 -18 95 -50 74z"/>
<path d="M9630 711 c0 -6 5 -13 10 -16 6 -3 10 1 10 9 0 9 -4 16 -10 16 -5 0
-10 -4 -10 -9z"/>
<path d="M9621 674 c0 -11 3 -14 6 -6 3 7 2 16 -1 19 -3 4 -6 -2 -5 -13z"/>
<path d="M4490 670 c0 -5 -8 -10 -19 -10 -13 0 -20 -9 -23 -30 -5 -36 14 -55
57 -55 27 0 30 4 33 33 2 22 -3 41 -14 53 -19 21 -34 25 -34 9z"/>
<path d="M8906 628 c8 -49 32 -87 54 -88 15 0 40 50 40 78 0 15 -36 38 -73 46
-27 6 -27 6 -21 -36z"/>
<path d="M6443 618 c-68 -46 -53 -77 34 -75 59 2 72 20 48 67 -20 39 -34 40
-82 8z"/>
<path d="M5174 604 c-9 -36 24 -94 53 -94 17 0 23 7 28 34 8 39 -9 78 -29 70
-8 -3 -17 -1 -21 5 -11 19 -24 12 -31 -15z"/>
<path d="M5555 606 c-18 -27 -6 -76 19 -76 33 0 66 20 66 40 0 58 -55 82 -85
36z"/>
<path d="M8405 593 c-18 -3 -20 -10 -17 -41 6 -48 16 -59 50 -54 31 4 67 62
44 70 -7 2 -12 10 -12 18 0 14 -21 16 -65 7z"/>
<path d="M4054 555 c-9 -48 9 -75 51 -75 48 0 65 9 65 35 0 27 -24 48 -72 62
-37 11 -38 11 -44 -22z"/>
<path d="M9394 579 c-4 -7 -22 -9 -44 -6 -45 6 -54 -9 -36 -64 10 -32 14 -34
53 -33 23 1 48 4 56 7 20 7 32 88 15 99 -18 11 -36 10 -44 -3z"/>
<path d="M8669 571 c-2 -7 -2 -34 1 -59 5 -43 7 -47 40 -53 29 -6 38 -3 63 21
l29 29 -26 26 c-21 21 -34 26 -61 23 -25 -3 -35 0 -38 12 -2 11 -4 12 -8 1z"/>
<path d="M7117 531 c-25 -43 -21 -57 23 -78 l39 -20 11 30 c16 47 12 61 -19
80 -37 22 -34 22 -54 -12z"/>
<path d="M6720 504 c-15 -40 -13 -97 4 -91 7 3 19 0 25 -6 6 -6 13 -8 16 -5 8
8 9 104 1 117 -12 19 -36 12 -46 -15z"/>
<path d="M7939 492 c-11 -27 -3 -65 12 -57 5 4 9 -1 9 -10 0 -10 5 -14 13 -11
6 3 20 9 30 12 19 7 23 44 7 73 -15 28 -59 24 -71 -7z"/>
<path d="M9050 510 c0 -6 -15 -9 -32 -8 -30 3 -33 0 -36 -26 -6 -48 5 -73 30
-72 13 1 27 6 31 11 6 6 10 6 14 -2 8 -20 23 -15 23 7 0 11 4 20 9 20 5 0 0
18 -11 40 -20 40 -28 49 -28 30z"/>
<path d="M4719 486 c-15 -32 -4 -73 22 -87 29 -15 44 2 44 52 0 58 -45 82 -66
35z"/>
<path d="M5767 452 c-9 -10 -17 -27 -17 -38 0 -26 16 -49 24 -36 4 7 16 6 36
-1 36 -14 50 -1 50 45 0 30 -3 33 -46 42 -23 5 -34 2 -47 -12z"/>
<path d="M6191 444 c-11 -14 -23 -34 -26 -45 -8 -24 11 -50 31 -42 8 3 21 0
29 -7 11 -9 18 -4 34 29 27 52 26 65 -4 79 -36 17 -41 15 -64 -14z"/>
<path d="M8175 450 c-3 -5 -17 -10 -31 -10 -28 0 -29 -6 -10 -50 11 -28 19
-33 54 -36 37 -4 43 -1 57 26 20 39 20 42 -16 63 -35 20 -45 21 -54 7z"/>
<path d="M8480 436 c-28 -30 -22 -47 23 -74 40 -23 47 -17 47 42 0 57 -32 72
-70 32z"/>
<path d="M5062 404 c-10 -35 -10 -36 23 -50 43 -18 50 -18 69 2 22 21 20 31
-9 59 -37 38 -69 33 -83 -11z"/>
<path d="M7543 433 c-30 -4 -33 -8 -33 -37 0 -38 14 -53 56 -62 55 -11 108 58
72 94 -12 12 -31 13 -95 5z"/>
<path d="M4220 413 c0 -16 -8 -22 -32 -27 -31 -5 -125 5 -169 19 -11 4 -19 2
-19 -5 0 -6 -4 -8 -10 -5 -18 11 -11 -37 8 -52 29 -24 126 -65 130 -55 1 5 16
8 32 6 16 -2 32 1 35 6 3 6 19 10 35 10 15 0 30 6 33 13 5 15 -11 64 -30 92
-13 19 -13 19 -13 -2z"/>
<path d="M6533 412 c-19 -15 -20 -20 -10 -52 15 -45 61 -65 83 -35 8 10 14 36
14 56 0 30 -4 38 -17 37 -10 0 -25 2 -33 5 -8 4 -25 -1 -37 -11z"/>
<path d="M6956 376 c-10 -46 -7 -66 9 -66 7 0 19 -8 24 -17 9 -15 12 -16 20
-4 5 7 14 10 20 7 7 -5 11 8 11 38 0 34 -4 46 -15 46 -8 0 -15 6 -15 13 0 6
-11 12 -24 12 -19 0 -26 -7 -30 -29z"/>
<path d="M5384 335 c-12 -8 -24 -11 -28 -8 -3 3 -6 -8 -6 -25 0 -21 5 -32 15
-32 8 0 19 -9 25 -20 6 -11 14 -20 18 -20 13 0 42 62 42 91 0 24 -4 29 -23 29
-12 0 -32 -7 -43 -15z"/>
<path d="M4831 301 c-21 -38 -13 -57 26 -69 45 -14 55 -4 51 48 -3 31 -6 35
-35 38 -23 2 -34 -2 -42 -17z"/>
<path d="M6793 303 c-3 -9 0 -34 8 -56 13 -37 17 -41 49 -41 25 0 36 5 38 18
8 37 -9 67 -43 82 -43 18 -44 18 -52 -3z"/>
<path d="M5635 290 c-6 -19 6 -55 27 -81 21 -26 71 -13 87 23 17 39 3 54 -61
67 -41 7 -48 6 -53 -9z"/>
<path d="M6025 300 c-3 -5 -17 -10 -31 -10 -16 0 -24 -6 -24 -17 0 -10 -3 -29
-7 -42 -4 -17 -3 -22 5 -17 8 4 12 0 12 -10 0 -14 3 -15 12 -6 9 9 15 9 26 0
11 -10 16 -8 23 5 6 9 17 17 26 17 11 0 14 6 9 23 -3 12 -6 32 -6 45 0 15 -6
22 -19 22 -11 0 -23 -4 -26 -10z"/>
<path d="M6376 268 c-5 -33 -3 -42 15 -57 20 -16 24 -17 41 -2 10 8 18 22 18
31 0 23 -26 57 -49 63 -16 4 -20 -2 -25 -35z"/>
<path d="M10861 7748 c0 -16 -9 -32 -21 -38 -11 -6 -20 -21 -20 -34 0 -28 19
-86 28 -85 4 0 22 19 40 41 32 40 39 73 15 73 -18 0 -31 17 -36 45 -4 25 -4
25 -6 -2z"/>
<path d="M10805 7535 c-14 -13 -25 -33 -25 -44 0 -19 24 -51 38 -51 12 1 72
87 72 103 0 27 -56 22 -85 -8z"/>
<path d="M10968 7493 c-13 -3 -18 -14 -18 -36 0 -35 15 -65 26 -54 4 4 14 1
23 -6 14 -12 21 -11 47 7 24 17 29 26 24 42 -14 36 -61 59 -102 47z"/>
<path d="M11118 7288 c-23 -24 -22 -67 2 -98 11 -14 20 -20 20 -13 0 7 12 18
28 25 20 10 26 19 24 38 -4 28 -31 62 -42 55 -5 -3 -10 -2 -12 3 -1 4 -11 0
-20 -10z"/>
<path d="M11251 7172 c-1 -8 -10 -21 -21 -30 -18 -15 -19 -20 -8 -49 11 -29
17 -33 50 -33 36 0 38 1 38 34 0 34 -38 97 -40 66 -1 -10 -4 -9 -10 5 -5 11
-9 14 -9 7z"/>
<path d="M11067 7100 c-3 -12 -14 -20 -26 -20 -17 0 -21 -6 -21 -35 0 -45 35
-85 56 -63 25 25 33 72 18 106 -15 37 -20 39 -27 12z"/>
<path d="M11199 6993 c-9 -10 -24 -23 -34 -29 -18 -10 -17 -12 9 -47 30 -39
44 -45 64 -25 17 17 14 47 -6 86 -16 30 -18 31 -33 15z"/>
<path d="M11290 6932 c0 -17 -3 -37 -6 -46 -4 -12 0 -16 16 -16 13 0 24 -8 27
-20 6 -24 19 -26 27 -4 3 9 13 14 20 11 19 -8 26 14 19 58 -6 36 -23 59 -23
31 0 -9 -5 -16 -11 -16 -5 0 -7 5 -4 10 3 6 -3 10 -14 10 -10 0 -26 3 -35 6
-12 5 -16 -1 -16 -24z"/>
<path d="M11155 6800 c-40 -5 -40 -5 -43 -52 l-3 -47 41 1 c44 0 55 17 48 74
-3 28 -5 29 -43 24z"/>
<path d="M11261 6699 c-26 -22 -26 -32 1 -80 l21 -38 27 37 c44 60 45 75 6 88
-27 8 -37 7 -55 -7z"/>
<path d="M11550 6595 c0 -13 -4 -14 -21 -5 -23 13 -22 14 -38 -18 -8 -14 -10
-40 -5 -69 6 -40 9 -44 19 -30 7 9 18 17 26 17 18 0 49 73 42 100 -6 23 -23
27 -23 5z"/>
<path d="M11331 6340 c-15 -51 -14 -67 7 -73 9 -2 24 -8 32 -11 10 -4 19 4 29
26 8 18 22 38 30 45 14 11 14 12 -1 13 -9 0 -21 6 -25 14 -4 7 -20 15 -34 18
-24 4 -28 0 -38 -32z"/>
<path d="M11558 6349 c-31 -33 -39 -85 -13 -75 10 4 19 -2 23 -15 7 -18 10
-19 21 -5 7 8 18 13 25 10 13 -5 26 23 26 59 0 16 -36 57 -50 56 -3 0 -17 -14
-32 -30z"/>
<path d="M11207 6125 c-23 -16 -16 -46 19 -88 17 -20 24 -24 24 -13 0 9 7 16
15 16 16 0 21 52 9 84 -8 20 -43 20 -67 1z"/>
<path d="M11433 6110 c-31 -38 -29 -54 10 -72 32 -15 35 -15 60 5 36 30 45 72
19 86 -34 18 -66 12 -89 -19z"/>
<path d="M11637 5978 c-9 -5 -8 -18 3 -50 12 -34 20 -43 40 -44 43 -2 50 6 50
56 l0 47 -41 -1 c-22 0 -46 -4 -52 -8z"/>
<path d="M11330 5850 c-6 -24 -8 -54 -4 -69 5 -20 8 -22 11 -8 5 19 19 23 25
5 3 -7 12 -6 31 6 22 15 25 23 21 49 -10 56 -12 59 -32 48 -13 -7 -22 -7 -30
1 -7 7 -14 -2 -22 -32z"/>
<path d="M11555 5838 c-40 -22 -63 -49 -58 -69 3 -10 8 -19 12 -19 3 -1 25 -5
48 -9 33 -6 43 -5 47 6 10 26 6 79 -6 91 -14 14 -17 14 -43 0z"/>
<path d="M11631 5676 c-16 -17 -22 -32 -18 -48 7 -26 59 -56 66 -37 2 6 12 20
22 30 11 11 17 19 14 19 -4 0 -2 8 4 17 7 14 4 20 -21 30 -40 17 -41 17 -67
-11z"/>
<path d="M11415 5650 c-2 -4 -7 -24 -10 -46 -6 -36 -4 -41 23 -57 l30 -17 22
35 c31 51 24 78 -23 86 -21 3 -40 3 -42 -1z"/>
<path d="M11382 5458 c-13 -13 -17 -87 -4 -89 89 -12 122 1 122 48 0 33 0 33
-49 33 -27 0 -51 5 -53 10 -2 7 -8 6 -16 -2z"/>
<path d="M11614 5460 c-13 -13 -3 -95 11 -94 45 3 95 19 95 30 0 16 -21 64
-29 65 -3 0 -20 2 -37 4 -17 3 -35 0 -40 -5z"/>
<path d="M11656 5255 c-8 -43 -4 -51 31 -57 16 -3 36 -9 46 -13 15 -6 17 -1
17 43 0 54 -8 62 -60 62 -24 0 -29 -5 -34 -35z"/>
<path d="M11557 5269 c-9 -5 -21 -7 -27 -4 -13 8 -30 -28 -30 -64 0 -29 3 -31
35 -31 19 0 35 5 35 11 0 7 9 9 21 6 18 -5 20 -2 17 41 -3 50 -17 61 -51 41z"/>
<path d="M11879 5155 c-3 -2 -21 -5 -42 -7 -35 -2 -37 -4 -37 -35 0 -31 28
-73 49 -73 8 0 71 66 71 74 0 8 -38 45 -41 41z"/>
<path d="M11496 5069 c-11 -11 -25 -19 -33 -19 -8 0 -13 -13 -13 -35 0 -25 4
-35 15 -35 9 0 18 -7 21 -15 10 -24 20 -18 59 39 32 47 35 57 24 68 -20 20
-51 18 -73 -3z"/>
<path d="M11610 4968 c0 -43 13 -61 43 -62 20 -1 27 4 31 27 12 61 9 67 -34
67 -38 0 -40 -1 -40 -32z"/>
<path d="M11734 4900 c-8 -35 -7 -47 3 -53 7 -4 13 -15 13 -22 0 -20 34 -19
50 0 26 32 3 122 -24 95 -15 -15 -24 -12 -29 8 -2 9 -8 -3 -13 -28z"/>
<path d="M11535 4785 c-29 -28 -32 -53 -9 -81 11 -14 17 -16 21 -6 4 10 8 10
19 1 12 -10 18 -8 29 7 25 34 29 74 8 89 -26 20 -41 18 -68 -10z"/>
<path d="M11815 4760 c-27 -53 -14 -72 48 -74 39 -1 49 14 41 63 -5 33 -9 39
-20 30 -10 -8 -14 -8 -14 0 0 24 -40 10 -55 -19z"/>
<path d="M11433 4633 c-27 -5 -35 -26 -27 -69 6 -31 34 -50 34 -23 0 7 8 6 22
-3 21 -14 23 -13 40 19 14 26 16 38 7 54 -6 12 -17 18 -25 15 -8 -3 -14 -1
-14 4 0 6 -3 9 -7 9 -5 -1 -18 -4 -30 -6z"/>
<path d="M11690 4609 c-20 -37 -9 -62 33 -72 48 -12 67 -4 67 28 0 54 -77 88
-100 44z"/>
<path d="M11577 4431 c-16 -32 -17 -42 -6 -59 7 -11 19 -18 27 -15 8 3 17 0
22 -6 5 -9 15 -6 35 13 36 33 29 69 -17 87 -18 7 -35 14 -38 16 -3 1 -13 -15
-23 -36z"/>
<path d="M11450 4397 c0 -10 -7 -17 -15 -17 -8 0 -15 5 -15 10 0 22 -18 8 -24
-17 -4 -16 -9 -36 -12 -45 -6 -20 52 -49 92 -46 22 2 24 6 24 57 0 30 -3 51
-7 48 -3 -4 -15 0 -25 10 -17 15 -18 15 -18 0z"/>
<path d="M11837 4350 c-9 -11 -28 -20 -42 -20 -23 0 -25 -3 -25 -50 0 -49 1
-50 25 -44 17 4 25 2 25 -7 1 -9 4 -8 11 4 5 9 16 17 23 17 27 0 34 59 13 97
-13 23 -13 23 -30 3z"/>
<path d="M11495 4161 c-3 -6 -15 -11 -26 -11 -16 0 -19 -7 -19 -50 0 -54 5
-58 51 -34 27 14 30 19 27 56 -3 40 -20 60 -33 39z"/>
<path d="M11686 4135 c-3 -8 -12 -15 -21 -15 -11 0 -15 -11 -15 -40 0 -43 -19
-61 -44 -41 -16 13 -29 1 -46 -43 -12 -32 -6 -64 13 -63 31 1 43 -5 53 -26 12
-27 -10 -57 -43 -57 -30 0 -47 -39 -33 -75 8 -21 13 -26 19 -16 7 10 13 10 29
2 19 -10 22 -8 28 13 12 47 76 82 89 48 8 -22 81 66 76 92 -4 28 -6 29 -31 16
-27 -15 -130 -22 -130 -10 0 6 5 10 10 10 6 0 10 18 10 39 0 22 5 52 10 67
l11 27 25 -24 c20 -19 27 -21 33 -10 5 7 13 11 19 7 5 -3 13 10 17 31 6 32 3
39 -22 59 -33 27 -49 30 -57 9z"/>
<path d="M11863 3962 c-25 -2 -34 -10 -42 -34 -12 -33 -1 -58 25 -58 8 0 14
-5 14 -10 0 -11 34 6 58 28 11 10 12 16 3 25 -6 6 -11 19 -11 28 0 22 -7 25
-47 21z"/>
<path d="M11823 3772 c-51 -5 -58 -66 -10 -90 49 -25 62 -20 65 23 4 51 -13
71 -55 67z"/>
<path d="M11348 3673 c-6 -46 17 -73 61 -73 33 0 51 22 51 64 0 20 -7 27 -37
35 -63 18 -70 15 -75 -26z"/>
<path d="M11505 3626 c-24 -36 -16 -80 14 -84 15 -2 28 3 33 12 5 9 16 16 23
16 9 0 15 10 15 25 0 15 -6 25 -14 25 -8 0 -16 7 -20 15 -8 23 -34 18 -51 -9z"/>
<path d="M11670 3626 c0 -12 3 -31 6 -44 6 -21 12 -23 58 -20 42 2 51 6 54 23
4 33 -14 48 -67 55 -47 6 -51 5 -51 -14z"/>
<path d="M11689 3489 c-8 -5 -21 -6 -30 -3 -25 7 -34 -42 -14 -73 13 -19 23
-23 48 -21 30 3 32 5 35 49 3 49 -11 66 -39 48z"/>
<path d="M11384 3348 c-20 -39 -6 -55 50 -60 36 -3 41 0 52 28 16 39 8 50 -44
57 -40 5 -43 3 -58 -25z"/>
<path d="M11564 3248 c-5 -16 -8 -17 -14 -7 -6 9 -10 6 -15 -13 -10 -41 -2
-61 28 -71 42 -14 77 5 77 40 0 36 -9 49 -42 62 -23 9 -28 7 -34 -11z"/>
<path d="M11357 3143 c-13 -21 -19 -83 -7 -83 6 0 18 -7 27 -15 13 -14 18 -13
45 6 39 28 45 47 22 70 -21 21 -79 36 -87 22z"/>
<path d="M11710 3071 c0 -6 -7 -11 -15 -11 -11 0 -15 -12 -15 -45 0 -38 3 -45
19 -45 11 0 25 -2 33 -5 17 -6 61 58 56 82 -2 12 -11 17 -26 15 -13 -2 -30 2
-38 8 -10 9 -14 9 -14 1z"/>
<path d="M11580 3000 c0 -6 -6 -10 -12 -8 -7 1 -30 -4 -50 -12 -37 -14 -37
-15 -32 -54 6 -40 24 -74 24 -47 0 10 3 11 13 2 11 -8 18 -6 32 9 10 11 24 20
32 20 9 0 13 15 13 50 0 28 -4 50 -10 50 -5 0 -10 -5 -10 -10z"/>
<path d="M11320 2860 c0 -5 -7 -10 -15 -10 -10 0 -15 -10 -15 -30 0 -23 5 -30
19 -30 10 0 22 -8 25 -17 5 -12 9 -14 18 -5 7 7 20 12 29 12 26 0 34 37 14 66
-13 20 -19 23 -30 14 -9 -8 -15 -8 -20 0 -8 13 -25 13 -25 0z"/>
<path d="M11673 2763 c-27 -5 -29 -26 -8 -76 l14 -35 38 19 c53 27 55 31 33
67 -19 31 -29 34 -77 25z"/>
<path d="M11510 2720 c0 -5 -11 -10 -25 -10 -15 0 -25 -6 -25 -14 0 -25 20
-69 38 -82 23 -18 37 -17 22 1 -7 9 -9 19 -5 23 4 4 10 1 12 -5 6 -17 23 -17
23 0 0 7 9 23 20 35 l21 22 -33 20 c-37 22 -48 25 -48 10z"/>
<path d="M11250 2566 c0 -50 18 -87 28 -58 2 7 13 10 27 6 27 -7 31 -2 40 47
7 40 0 47 -62 55 l-33 4 0 -54z"/>
<path d="M11582 2590 c-18 -30 -15 -57 10 -74 28 -20 45 -20 64 -2 22 22 17
42 -17 70 -37 31 -41 32 -57 6z"/>
<path d="M11473 2501 c-14 -13 -24 -16 -36 -9 -11 6 -17 5 -17 -2 0 -5 5 -10
12 -10 9 0 9 -3 0 -12 -17 -17 -15 -39 3 -32 11 5 15 -1 15 -20 0 -14 5 -26
10 -26 6 0 10 5 10 12 0 9 3 9 12 0 8 -8 16 -3 29 23 18 34 18 36 1 65 -18 29
-19 29 -39 11z"/>
<path d="M11564 2338 c-13 -20 -10 -68 4 -68 7 0 15 -7 18 -15 4 -8 10 -15 15
-15 4 0 6 7 3 15 -4 11 -2 13 9 9 21 -8 29 10 21 51 -5 30 -10 35 -35 35 -15
0 -31 -5 -35 -12z"/>
<path d="M11230 2321 c0 -6 -6 -11 -14 -11 -7 0 -16 -14 -20 -31 -8 -44 -8
-51 5 -44 6 4 17 -1 25 -11 14 -18 14 -18 29 1 22 28 30 65 18 84 -12 19 -43
27 -43 12z"/>
<path d="M11360 2228 c0 -46 1 -48 28 -48 15 0 33 5 40 12 7 7 12 8 12 4 0 -5
7 -3 15 4 8 7 15 25 15 41 0 32 -18 41 -74 37 -36 -2 -36 -2 -36 -50z"/>
<path d="M11486 2124 c-8 -22 -7 -57 3 -72 7 -11 14 -11 43 1 39 17 42 20 52
60 6 27 6 27 -43 27 -35 0 -51 -4 -55 -16z"/>
<path d="M11163 2102 c-9 -6 -26 -64 -28 -97 0 -5 -15 -14 -33 -20 -21 -6 -31
-14 -27 -23 3 -7 5 -24 5 -36 0 -18 6 -23 28 -23 15 0 33 -2 41 -4 10 -3 17 9
23 36 5 22 23 59 42 82 l34 43 11 -28 c12 -28 67 -69 78 -58 3 3 8 27 11 54 3
36 0 51 -12 61 -10 8 -16 9 -16 3 0 -6 -8 -10 -17 -10 -10 1 -28 -2 -40 -6
-16 -5 -23 -2 -28 14 -6 20 -47 28 -72 12z"/>
<path d="M11327 1929 c-11 -40 -8 -84 8 -105 8 -11 14 -14 15 -6 0 8 8 10 24
6 20 -5 24 -1 30 26 6 35 -20 83 -41 75 -7 -2 -16 3 -21 12 -8 13 -10 11 -15
-8z"/>
<path d="M11180 1853 c-27 -10 -30 -27 -9 -49 24 -26 19 -53 -15 -87 -32 -30
-37 -52 -18 -68 15 -12 28 -14 80 -10 8 1 12 19 12 54 0 28 5 70 10 92 16 66
-5 89 -60 68z m27 -108 c0 -8 -4 -15 -9 -15 -10 0 -11 14 -1 23 9 10 10 9 10
-8z"/>
<path d="M11028 1746 c-29 -16 -42 -18 -55 -10 -13 8 -21 6 -35 -8 -10 -10
-27 -18 -38 -18 -27 0 -36 -25 -16 -45 9 -9 16 -21 16 -27 0 -5 7 -8 15 -5 8
4 17 2 20 -3 4 -6 13 -7 23 -1 11 6 29 4 51 -5 35 -15 50 -8 51 23 0 7 7 10
15 7 12 -5 15 4 15 44 0 64 -14 75 -62 48z"/>
<path d="M11246 1638 c-17 -85 -4 -105 59 -94 29 6 35 11 35 32 0 13 -7 41
-15 62 -13 29 -18 33 -25 22 -8 -12 -13 -13 -29 -3 -17 10 -19 8 -25 -19z"/>
<path d="M11062 1552 c-10 -21 -9 -29 4 -44 9 -9 25 -20 35 -23 14 -5 18 -13
14 -33 -3 -15 -2 -21 1 -14 3 6 15 12 26 12 15 0 18 4 13 18 -17 41 -17 55 -1
64 20 11 21 28 2 28 -8 0 -16 6 -19 13 -3 9 -9 9 -27 -1 -15 -9 -25 -10 -29
-4 -3 6 -12 -1 -19 -16z"/>
<path d="M10878 1523 l-58 -4 0 -49 c0 -28 2 -50 5 -50 3 0 17 7 31 16 23 15
28 15 65 1 38 -15 40 -15 62 7 13 13 21 29 19 37 -8 24 -34 49 -51 47 -9 -1
-42 -3 -73 -5z"/>
<path d="M11152 1440 c-29 -20 -42 -38 -42 -53 0 -21 5 -24 49 -25 48 -1 49 0
56 34 6 36 -1 74 -14 74 -4 0 -27 -14 -49 -30z"/>
<path d="M11030 1401 c-19 -10 -35 -23 -34 -30 1 -6 2 -25 3 -41 1 -27 3 -30
21 -20 14 8 26 8 41 0 28 -15 32 -10 37 55 4 49 2 55 -14 55 -11 0 -35 -8 -54
-19z"/>
<path d="M3452 7758 c-20 -20 -13 -55 14 -77 35 -28 37 -27 57 14 16 34 16 36
-3 55 -23 23 -50 26 -68 8z"/>
<path d="M3825 7526 c-23 -35 -16 -90 11 -94 29 -4 61 66 45 97 -15 28 -37 27
-56 -3z"/>
<path d="M3672 7513 c-22 -9 -40 -56 -31 -80 11 -30 41 -29 75 0 22 19 25 28
19 55 -7 32 -27 40 -63 25z"/>
<path d="M3781 7391 c-42 -34 -39 -62 7 -75 40 -11 52 1 52 55 0 48 -18 54
-59 20z"/>
<path d="M3874 7300 c-32 -13 -38 -28 -20 -55 28 -42 80 -27 99 27 11 30 -35
46 -79 28z"/>
<path d="M3729 7239 c-27 -27 -21 -50 18 -66 31 -12 33 -12 48 17 20 39 19 45
-10 58 -33 15 -31 16 -56 -9z"/>
<path d="M3992 7131 c-8 -5 -12 -23 -10 -47 3 -36 6 -40 41 -48 30 -8 40 -7
48 5 32 51 -29 122 -79 90z"/>
<path d="M4148 7047 c-35 -28 -30 -77 7 -77 13 0 30 -2 37 -5 9 -4 18 6 26 28
16 45 15 57 -6 57 -10 0 -22 4 -28 10 -6 6 -19 2 -36 -13z"/>
<path d="M4035 7000 c3 -5 8 -10 11 -10 2 0 4 5 4 10 0 6 -5 10 -11 10 -5 0
-7 -4 -4 -10z"/>
<path d="M3920 6964 c-26 -68 0 -99 50 -58 34 29 39 59 11 74 -32 16 -51 12
-61 -16z"/>
<path d="M4055 6970 c-3 -5 -1 -10 4 -10 6 0 11 5 11 10 0 6 -2 10 -4 10 -3 0
-8 -4 -11 -10z"/>
<path d="M4074 6846 c-3 -14 -4 -33 -1 -41 8 -18 49 -29 82 -21 21 5 25 12 25
41 0 33 -2 35 -34 35 -19 0 -41 3 -50 6 -10 4 -17 -2 -22 -20z"/>
<path d="M3903 6830 c-25 -10 -43 -39 -43 -69 0 -20 12 -27 35 -21 6 1 16 3
23 3 18 0 31 37 25 70 -6 29 -7 30 -40 17z"/>
<path d="M4291 6770 c-47 -7 -71 -29 -71 -67 0 -20 5 -23 35 -23 20 0 52 7 71
15 32 13 35 18 29 42 -9 38 -13 40 -64 33z"/>
<path d="M4003 6688 c-46 -22 -13 -78 45 -78 42 0 48 15 20 55 -25 37 -31 39
-65 23z"/>
<path d="M4209 6610 c-44 -12 -69 -30 -69 -48 0 -25 20 -42 48 -42 42 0 62 18
62 55 0 40 -6 45 -41 35z"/>
<path d="M4323 6523 c-11 -28 19 -68 55 -71 27 -3 34 1 42 23 13 35 14 34 -17
47 -46 18 -74 18 -80 1z"/>
<path d="M3980 6498 c0 -66 38 -128 79 -128 11 0 13 12 8 60 -6 71 -19 90 -58
90 -23 0 -29 -4 -29 -22z"/>
<path d="M4146 6429 c-37 -29 -33 -73 6 -77 30 -4 68 24 68 49 0 52 -30 63
-74 28z"/>
<path d="M4274 6325 c-18 -43 -18 -66 -1 -89 13 -17 14 -18 20 -2 4 10 15 16
24 15 52 -6 73 51 33 91 -31 31 -59 26 -76 -15z"/>
<path d="M4181 6314 c0 -11 3 -14 6 -6 3 7 2 16 -1 19 -3 4 -6 -2 -5 -13z"/>
<path d="M4420 6306 c-13 -13 -13 -52 0 -75 5 -11 21 -18 38 -19 38 -1 56 33
41 77 -8 24 -16 29 -39 29 -16 -1 -34 -6 -40 -12z"/>
<path d="M4134 6195 c-25 -25 -26 -55 -3 -79 14 -15 56 10 73 43 15 28 15 31
-6 45 -30 21 -35 20 -64 -9z"/>
<path d="M4510 6138 c-11 -18 -16 -36 -11 -41 4 -4 31 -9 59 -10 54 -2 62 5
62 61 0 20 -5 22 -45 22 -40 0 -47 -4 -65 -32z"/>
<path d="M4397 6112 c-33 -34 -34 -56 -5 -76 33 -24 45 -20 58 19 10 30 9 40
-4 60 -9 14 -18 25 -19 25 -2 0 -15 -13 -30 -28z"/>
<path d="M4253 6110 c-27 -11 -29 -36 -7 -69 12 -16 19 -20 27 -12 6 6 21 11
33 11 28 0 48 49 28 68 -15 14 -49 15 -81 2z"/>
<path d="M4290 5956 c-42 -13 -51 -45 -21 -75 30 -30 56 -26 78 12 32 53 5 84
-57 63z"/>
<path d="M4500 5961 c0 -6 -7 -8 -15 -5 -19 8 -21 -42 -3 -81 14 -31 68 -37
68 -7 0 14 2 15 10 2 5 -8 10 -10 10 -5 0 6 -7 20 -15 32 -8 12 -16 32 -18 45
-4 22 -37 40 -37 19z"/>
<path d="M4630 5885 c0 -24 5 -35 14 -35 8 0 17 -6 20 -12 7 -19 46 29 46 58
0 21 -4 24 -40 24 -39 0 -40 -1 -40 -35z"/>
<path d="M4413 5775 c-15 -17 -17 -73 -3 -95 8 -13 13 -12 37 6 34 26 42 70
16 90 -23 17 -35 17 -50 -1z"/>
<path d="M4256 5735 c-16 -12 -18 -20 -10 -43 9 -24 15 -27 52 -26 23 0 45 3
48 7 8 8 -16 77 -27 77 -5 0 -9 -5 -9 -12 0 -9 -3 -9 -12 0 -15 15 -19 15 -42
-3z"/>
<path d="M4616 5685 c-12 -12 -13 -22 -4 -45 12 -36 22 -43 47 -35 21 6 46 64
34 76 -19 16 -62 19 -77 4z"/>
<path d="M4357 5573 c-12 -12 -7 -79 7 -98 12 -17 17 -18 40 -7 33 15 42 37
24 56 -7 7 -21 23 -30 35 -18 22 -30 26 -41 14z"/>
<path d="M4690 5553 c0 -10 -3 -29 -7 -42 -5 -20 -3 -23 10 -18 10 4 18 -1 22
-13 5 -17 8 -16 37 10 30 28 31 29 14 54 -20 32 -76 37 -76 9z"/>
<path d="M4536 5495 c-57 -25 -50 -89 8 -78 45 9 61 29 50 61 -11 31 -21 34
-58 17z"/>
<path d="M4667 5365 c-30 -22 -16 -105 18 -105 18 0 45 39 45 65 0 11 -11 27
-23 36 -19 14 -26 14 -40 4z"/>
<path d="M4432 5248 c-7 -7 -12 -26 -12 -42 0 -37 14 -64 24 -47 4 6 16 11 27
11 15 0 19 7 19 39 0 26 -5 41 -16 45 -22 8 -28 8 -42 -6z"/>
<path d="M4611 5159 c-12 -10 -27 -16 -32 -13 -5 3 -9 -16 -9 -42 l0 -46 37 7
c51 9 53 11 53 54 0 51 -18 65 -49 40z"/>
<path d="M4762 5125 c-17 -38 -15 -59 9 -73 27 -17 46 -2 55 44 5 26 2 32 -21
42 -33 15 -30 16 -43 -13z"/>
<path d="M4502 4935 c-17 -37 -15 -59 8 -80 12 -11 20 -13 20 -6 0 7 5 9 10 6
6 -3 10 1 10 9 0 9 7 16 15 16 21 0 19 43 -3 63 -26 24 -47 21 -60 -8z"/>
<path d="M4732 4847 c-27 -29 -28 -53 -3 -67 30 -15 44 -12 65 16 15 21 16 30
7 50 -13 30 -41 31 -69 1z"/>
<path d="M4617 4726 c-10 -8 -37 -17 -60 -20 -36 -6 -43 -10 -45 -32 -3 -40
54 -55 131 -33 31 8 37 14 37 38 0 15 -8 35 -18 44 -22 20 -22 20 -45 3z"/>
<path d="M4465 4441 c-38 -23 -42 -41 -12 -69 19 -18 29 -21 49 -13 31 12 45
65 24 87 -18 17 -24 17 -61 -5z"/>
<path d="M4727 4453 c-2 -5 -7 -20 -11 -36 -5 -23 -3 -29 19 -37 15 -6 30 -10
34 -10 13 0 34 58 27 75 -6 15 -61 22 -69 8z"/>
<path d="M4586 4305 c-3 -9 -19 -18 -37 -22 -25 -5 -30 -10 -25 -27 3 -12 6
-27 6 -35 0 -10 12 -12 51 -9 27 3 55 10 61 16 15 15 12 73 -4 83 -21 14 -45
10 -52 -6z"/>
<path d="M4826 4173 c-17 -17 3 -113 23 -113 12 0 41 52 41 72 0 16 -54 51
-64 41z"/>
<path d="M4505 4045 c-25 -24 -33 -55 -16 -55 5 0 7 -9 4 -20 -6 -24 4 -25 31
-5 11 8 28 15 38 15 10 0 18 5 18 10 0 6 7 10 15 10 18 0 19 29 1 53 -19 25
-63 21 -91 -8z"/>
<path d="M4696 4004 c-13 -35 -6 -75 20 -101 21 -21 28 -23 35 -12 15 24 10
58 -13 94 -26 39 -33 42 -42 19z"/>
<path d="M4804 3806 c-7 -28 22 -89 39 -83 23 7 40 57 28 83 -15 33 -58 33
-67 0z"/>
<path d="M4692 3798 c-14 -14 -16 -86 -3 -107 10 -16 45 -1 60 27 17 34 -33
104 -57 80z"/>
<path d="M4460 3739 c0 -24 28 -86 42 -95 11 -7 58 34 58 50 0 5 -12 23 -27
38 -33 34 -73 38 -73 7z"/>
<path d="M4707 3471 c-16 -28 -16 -29 8 -55 32 -35 47 -30 60 18 8 33 6 40
-10 52 -27 20 -39 17 -58 -15z"/>
<path d="M4460 3467 c0 -9 -5 -17 -10 -19 -12 -4 36 -78 50 -78 6 0 10 10 10
23 0 12 3 32 6 43 4 15 0 23 -13 28 -10 3 -24 9 -30 12 -8 3 -13 -1 -13 -9z"/>
<path d="M4585 3341 c-7 -22 19 -91 34 -91 21 0 41 33 41 67 0 31 -2 35 -22
30 -12 -4 -27 -2 -34 4 -9 7 -14 4 -19 -10z"/>
<path d="M4762 3228 c-18 -18 -16 -108 2 -108 21 0 46 39 46 70 0 24 -16 50
-30 50 -3 0 -11 -5 -18 -12z"/>
<path d="M4453 3154 c-36 -18 -39 -29 -22 -68 11 -23 13 -23 48 -12 30 11 37
18 39 46 2 20 -2 36 -10 41 -17 11 -18 11 -55 -7z"/>
<path d="M4530 2967 c0 -25 6 -36 28 -49 26 -15 29 -15 51 1 13 10 21 23 17
29 -3 6 0 12 6 15 10 3 10 7 -1 20 -9 11 -29 17 -57 17 -43 0 -44 -1 -44 -33z"/>
<path d="M4706 2934 c-17 -44 4 -95 42 -100 41 -7 36 82 -7 105 -26 14 -28 14
-35 -5z"/>
<path d="M4360 2874 c-8 -8 -14 -33 -14 -56 -1 -38 1 -41 30 -44 41 -5 58 15
49 56 -7 30 -29 60 -44 60 -5 0 -14 -7 -21 -16z"/>
<path d="M4500 2744 c-19 -49 -13 -64 25 -64 19 0 38 -1 42 -2 4 -2 12 10 18
26 8 24 6 31 -14 47 -33 27 -60 24 -71 -7z"/>
<path d="M4640 2679 c0 -35 31 -89 50 -89 22 0 32 43 21 81 -13 42 -20 46 -39
27 -10 -10 -15 -10 -22 2 -7 11 -10 5 -10 -21z"/>
<path d="M4312 2568 c-7 -7 -12 -19 -12 -27 0 -21 65 -65 85 -57 15 5 20 50 9
80 -7 19 -64 22 -82 4z"/>
<path d="M4490 2526 c-21 -26 -28 -61 -14 -74 8 -7 19 -10 24 -7 6 3 10 1 10
-4 0 -17 27 -13 34 4 3 8 11 14 17 13 15 -4 29 45 18 63 -10 16 -76 20 -89 5z"/>
<path d="M4293 2343 c-16 -6 -16 -25 -1 -58 7 -15 17 -24 25 -21 8 3 16 -1 20
-9 7 -20 31 -2 45 34 7 21 5 28 -14 43 -23 17 -51 21 -75 11z"/>
<path d="M4542 2297 c2 -12 9 -21 15 -20 7 2 15 -6 18 -17 3 -11 13 -26 21
-34 21 -22 64 1 64 34 0 38 -11 46 -68 53 -51 6 -53 5 -50 -16z"/>
<path d="M4392 2112 c-23 -7 -13 -50 20 -77 30 -25 33 -26 45 -9 7 10 13 30
13 44 0 21 -7 29 -33 37 -17 5 -38 8 -45 5z"/>
<path d="M4202 2074 c-7 -8 -17 -12 -23 -9 -13 8 -11 -29 3 -60 13 -30 29 -32
51 -7 20 22 22 63 5 80 -15 15 -20 15 -36 -4z"/>
<path d="M4117 1860 c-8 -19 -17 -59 -21 -89 -6 -47 -4 -57 15 -77 30 -32 45
-30 57 5 10 29 9 41 -22 146 l-14 50 -15 -35z"/>
<path d="M4350 1859 c0 -31 31 -68 57 -69 13 0 33 31 33 52 0 16 -50 48 -74
48 -11 0 -16 -9 -16 -31z"/>
<path d="M4309 1683 c-9 -2 -19 -17 -21 -33 -4 -27 -1 -31 41 -45 24 -8 46
-15 47 -15 9 0 11 35 3 64 -10 36 -23 42 -70 29z"/>
<path d="M3958 1628 c-31 -11 -37 -42 -14 -73 12 -17 17 -17 45 -5 29 11 32
17 29 49 -3 39 -16 46 -60 29z"/>
<path d="M4095 1550 c-15 -17 -16 -24 -6 -48 7 -16 23 -34 36 -40 21 -10 26
-8 35 8 11 21 13 60 4 84 -9 22 -47 20 -69 -4z"/>
<path d="M4255 1449 c-6 -33 -4 -43 12 -54 22 -17 30 -18 38 -5 3 6 15 10 26
10 15 0 19 7 19 35 0 31 -3 35 -26 35 -14 0 -34 4 -44 10 -16 9 -19 5 -25 -31z"/>
<path d="M3851 1428 c-14 -39 -14 -75 -1 -83 16 -10 69 33 76 61 7 29 0 39
-38 48 -23 5 -27 2 -37 -26z"/>
<path d="M3970 1381 c0 -41 11 -51 54 -51 28 0 46 18 46 45 0 31 -19 45 -62
45 -37 0 -38 -1 -38 -39z"/>
<path d="M4146 1226 c-21 -49 -21 -50 9 -66 33 -18 55 1 55 46 0 27 -4 34 -19
34 -11 0 -21 6 -24 13 -2 6 -12 -5 -21 -27z"/>
<path d="M3944 1206 c-11 -27 5 -66 32 -78 22 -11 28 -9 40 7 22 30 18 62 -10
69 -13 3 -31 9 -40 12 -10 4 -18 0 -22 -10z"/>
<path d="M3830 1029 c0 -34 19 -59 45 -59 22 0 25 4 25 40 0 39 -1 40 -35 40
-29 0 -35 -4 -35 -21z"/>
<path d="M3843 893 c-32 -22 -30 -66 2 -87 24 -16 26 -16 50 8 56 56 11 124
-52 79z"/>
<path d="M3701 827 c-11 -30 -3 -54 27 -77 34 -27 40 -25 48 17 8 43 -3 64
-40 74 -22 6 -29 4 -35 -14z"/>
<path d="M3620 641 c0 -5 -9 -11 -20 -14 -14 -4 -20 -14 -20 -34 0 -55 45 -72
74 -28 16 24 15 27 -6 55 -23 32 -28 35 -28 21z"/>
<path d="M2720 541 c0 -5 5 -13 10 -16 6 -3 10 -2 10 4 0 5 -4 13 -10 16 -5 3
-10 2 -10 -4z"/>
<path d="M2480 7562 c0 -39 21 -64 58 -67 24 -2 32 2 36 19 10 37 7 45 -24 61
-47 24 -70 20 -70 -13z"/>
<path d="M2670 7516 c0 -43 20 -56 85 -56 33 0 47 4 52 16 11 29 -12 49 -65
55 -27 4 -55 10 -61 13 -7 5 -11 -5 -11 -28z"/>
<path d="M2363 7464 c-9 -25 10 -67 37 -81 20 -10 27 -9 42 4 10 9 18 28 18
43 0 20 -7 29 -33 38 -44 16 -56 15 -64 -4z"/>
<path d="M2909 7415 c-3 -2 -3 -20 -1 -39 3 -28 9 -35 34 -40 41 -8 48 -1 48
45 0 39 0 39 -38 39 -21 0 -41 -2 -43 -5z"/>
<path d="M2071 7343 c1 -39 15 -56 48 -59 33 -4 33 -3 27 27 -3 17 -6 35 -6
40 0 5 -16 9 -35 9 -27 0 -35 -4 -34 -17z"/>
<path d="M2564 7325 c-9 -51 0 -67 38 -63 30 3 33 6 33 38 0 29 -4 36 -22 38
-13 2 -23 8 -23 13 0 25 -20 5 -26 -26z"/>
<path d="M2874 7135 c-3 -14 -3 -36 0 -50 5 -20 13 -25 36 -25 38 0 51 37 26
75 -22 33 -54 33 -62 0z"/>
<path d="M2290 7070 c0 -22 4 -40 9 -40 5 0 16 -3 25 -6 10 -4 19 2 27 19 15
33 -3 67 -36 67 -22 0 -25 -4 -25 -40z"/>
<path d="M2367 7040 c-4 -15 3 -31 20 -50 21 -24 28 -27 44 -17 22 13 25 49 6
65 -6 6 -24 13 -38 17 -21 5 -27 2 -32 -15z"/>
<path d="M3434 6847 c-9 -25 14 -66 41 -73 35 -9 46 4 38 49 -5 34 -8 37 -40
37 -19 0 -36 -6 -39 -13z"/>
<path d="M3222 6805 c-7 -8 -12 -30 -10 -48 2 -33 2 -33 50 -32 60 1 72 12 61
56 -8 31 -13 34 -49 36 -25 2 -44 -3 -52 -12z"/>
<path d="M2964 6746 c-13 -53 -5 -61 74 -63 l72 -3 0 35 c0 43 -20 55 -89 55
-45 0 -51 -3 -57 -24z"/>
<path d="M2784 6687 c-3 -8 0 -26 6 -41 9 -24 15 -27 46 -24 44 4 64 37 38 63
-19 19 -83 20 -90 2z"/>
<path d="M11537 7314 c-24 -32 -11 -52 46 -74 51 -20 57 -15 57 40 0 31 -24
58 -35 40 -5 -8 -13 -7 -29 3 -19 13 -23 12 -39 -9z"/>
<path d="M11763 7223 c-15 -6 -17 -42 -3 -77 11 -30 11 -30 -67 -26 l-53 2 0
-44 0 -43 47 -3 c26 -2 51 -8 55 -15 9 -15 28 35 28 75 0 24 6 32 30 41 23 9
30 18 30 39 0 15 5 30 11 34 26 16 -44 31 -78 17z"/>
<path d="M11838 7029 c-36 -38 -10 -73 59 -82 35 -4 43 -2 48 13 3 11 -1 32
-9 48 -24 46 -67 55 -98 21z"/>
<path d="M12459 3293 c-5 -16 -12 -34 -14 -40 -2 -7 2 -13 10 -13 8 0 15 -3
15 -7 0 -16 62 -8 71 9 14 25 1 65 -24 72 -38 10 -47 7 -58 -21z"/>
<path d="M12262 3204 c-6 -7 -12 -28 -12 -46 0 -27 5 -35 31 -47 30 -13 33
-12 50 10 10 13 19 36 19 51 0 22 -6 29 -27 34 -16 3 -33 7 -38 9 -6 1 -16 -4
-23 -11z"/>
<path d="M1713 7074 c-18 -9 -58 -39 -90 -67 -32 -28 -76 -58 -99 -68 -24 -11
-46 -29 -53 -46 -7 -14 -26 -44 -43 -65 -19 -24 -37 -66 -49 -112 -10 -40 -37
-115 -60 -167 -23 -51 -43 -110 -43 -129 -1 -34 0 -35 34 -35 34 0 35 1 61 75
14 41 43 109 64 151 l37 76 45 -5 c35 -4 47 -1 58 14 22 30 18 51 -15 64 -50
21 -34 66 44 119 23 16 58 45 77 63 19 18 49 41 67 50 34 18 38 31 22 72 -11
30 -14 31 -57 10z"/>
<path d="M1836 7006 c-11 -39 -6 -52 24 -63 35 -13 50 -1 53 43 2 25 -2 29
-35 34 -31 6 -37 4 -42 -14z"/>
<path d="M1764 6645 c-12 -47 47 -79 62 -33 5 16 1 27 -16 40 -30 24 -38 23
-46 -7z"/>
<path d="M2128 6589 c-38 -22 -14 -69 34 -69 36 0 45 22 24 55 -18 27 -31 30
-58 14z"/>
<path d="M1710 6328 c0 -7 -3 -22 -6 -33 -4 -16 2 -23 24 -31 38 -15 62 -1 62
35 0 24 -5 30 -31 35 -44 8 -49 8 -49 -6z"/>
<path d="M1175 6228 c-2 -7 -13 -38 -25 -68 -25 -68 -38 -170 -21 -170 45 0
90 79 105 182 6 40 4 48 -13 57 -26 14 -41 14 -46 -1z"/>
<path d="M1427 6122 c-23 -26 -22 -28 24 -59 34 -22 42 -24 50 -12 13 21 11
42 -7 67 -18 27 -45 28 -67 4z"/>
<path d="M2124 6066 c-12 -32 0 -61 27 -64 32 -4 61 23 57 52 -2 16 -11 22
-41 24 -26 2 -39 -1 -43 -12z"/>
<path d="M1090 5856 c0 -29 -18 -161 -40 -292 -38 -221 -42 -261 -51 -539 -10
-288 -7 -461 9 -505 7 -19 9 -19 30 -4 21 14 22 21 22 165 0 162 39 661 70
904 31 232 24 325 -22 325 -15 0 -18 -8 -18 -54z"/>
<path d="M2006 5635 c-21 -32 -20 -62 3 -70 48 -15 67 27 32 71 l-19 24 -16
-25z"/>
<path d="M2457 5563 c-13 -12 -7 -51 9 -67 20 -21 34 -20 63 4 17 15 22 26 17
45 -5 21 -12 25 -45 25 -21 0 -41 -3 -44 -7z"/>
<path d="M1446 5544 c-32 -32 -7 -64 49 -64 35 0 42 26 15 56 -27 28 -42 30
-64 8z"/>
<path d="M2258 5163 c-23 -6 -23 -35 1 -64 l19 -24 21 25 c24 29 26 41 9 58
-12 12 -20 13 -50 5z"/>
<path d="M1734 5082 c-14 -22 -14 -25 3 -38 54 -42 83 -40 83 8 0 57 -56 76
-86 30z"/>
<path d="M1136 5074 c-10 -25 -7 -40 12 -64 15 -18 21 -20 45 -11 21 8 27 17
27 41 0 27 -3 30 -30 30 -16 0 -30 5 -30 10 0 16 -17 12 -24 -6z"/>
<path d="M1573 4669 c-43 -20 -52 -39 -34 -68 22 -35 121 19 121 66 0 29 -27
30 -87 2z"/>
<path d="M2499 4667 c-16 -22 -16 -24 8 -47 23 -22 27 -23 51 -9 18 10 26 22
24 35 -9 48 -55 59 -83 21z"/>
<path d="M2120 4612 c0 -32 5 -41 27 -51 32 -15 43 -3 43 52 0 36 -1 37 -35
37 -34 0 -35 -1 -35 -38z"/>
<path d="M1130 4535 c-18 -21 1 -61 36 -77 21 -10 27 -9 35 3 18 29 10 57 -23
73 -38 19 -33 19 -48 1z"/>
<path d="M1005 4351 c-3 -6 -11 -49 -17 -96 -18 -129 10 -275 51 -275 11 0 29
-12 40 -26 18 -23 26 -25 56 -20 30 6 35 11 35 35 0 36 -28 61 -68 61 -40 0
-47 20 -44 138 1 52 -2 111 -8 132 -11 41 -34 68 -45 51z"/>
<path d="M2357 4263 c-4 -3 -7 -21 -7 -40 0 -28 4 -33 23 -33 38 0 50 14 42
49 -5 23 -12 31 -29 31 -13 0 -26 -3 -29 -7z"/>
<path d="M2570 4209 c-6 -11 -8 -29 -5 -40 10 -32 67 -22 79 13 11 32 11 33
-31 41 -26 5 -35 2 -43 -14z"/>
<path d="M2126 4193 c-7 -7 -8 -67 -1 -74 2 -3 21 -3 40 -1 32 4 36 7 33 30
-2 18 -12 29 -34 38 -18 7 -34 10 -38 7z"/>
<path d="M1756 4175 c-9 -25 13 -63 34 -58 10 3 21 0 25 -7 5 -8 10 -8 21 1
15 12 18 37 8 63 -8 21 -80 22 -88 1z"/>
<path d="M1520 4041 c0 -6 -9 -11 -20 -11 -16 0 -20 -7 -20 -35 0 -29 5 -37
26 -45 58 -22 86 -3 68 48 -10 27 -54 63 -54 43z"/>
<path d="M2623 3958 c-13 -6 -23 -19 -23 -30 0 -21 34 -58 53 -58 15 0 50 77
41 91 -7 12 -44 10 -71 -3z"/>
<path d="M2006 3895 c-15 -23 -15 -27 -1 -48 14 -22 18 -23 50 -13 39 12 47
42 19 70 -23 23 -49 20 -68 -9z"/>
<path d="M2309 3813 c-1 -29 1 -66 5 -70 1 -2 17 3 34 9 25 10 32 18 32 40 0
49 -69 69 -71 21z"/>
<path d="M1020 3797 c-19 -55 -13 -107 16 -134 14 -13 29 -21 33 -18 3 4 6 46
6 93 0 83 -1 87 -22 88 -16 1 -25 -7 -33 -29z"/>
<path d="M1698 3783 c-14 -4 -32 -45 -33 -77 0 -5 24 -11 53 -14 48 -3 52 -2
52 18 0 27 -30 80 -45 79 -5 -1 -18 -3 -27 -6z"/>
<path d="M1325 3768 c-12 -37 -9 -53 15 -65 55 -29 90 -5 76 53 -5 20 -12 24
-47 24 -23 0 -41 -5 -44 -12z"/>
<path d="M2577 3725 c-20 -14 -22 -54 -4 -79 11 -16 15 -15 40 12 25 26 27 32
16 51 -18 27 -31 32 -52 16z"/>
<path d="M1203 3608 c-58 -15 -37 -78 26 -78 18 0 21 6 21 39 0 47 -5 51 -47
39z"/>
<path d="M1990 3610 c-8 -5 -25 -7 -37 -3 -21 5 -23 2 -23 -34 0 -22 2 -42 5
-45 3 -2 24 -2 47 1 39 5 43 9 46 37 3 35 -16 58 -38 44z"/>
<path d="M1581 3544 c-32 -41 -28 -71 12 -77 56 -9 79 58 31 90 -20 13 -24 12
-43 -13z"/>
<path d="M2243 3523 c-26 -17 -29 -40 -9 -65 22 -29 55 -22 71 15 13 30 12 33
-8 49 -26 21 -26 21 -54 1z"/>
<path d="M2491 3441 c-25 -16 21 -71 61 -71 7 0 18 16 24 35 9 27 8 35 -3 40
-22 8 -66 6 -82 -4z"/>
<path d="M1296 3424 c-25 -25 -19 -44 20 -60 20 -8 37 -14 38 -12 1 2 9 13 19
25 39 45 -35 90 -77 47z"/>
<path d="M1846 3408 c-23 -32 -20 -44 14 -58 44 -18 60 -8 60 40 0 38 -2 40
-29 40 -20 0 -35 -8 -45 -22z"/>
<path d="M1600 3345 c0 -25 3 -44 8 -43 4 1 16 -3 28 -9 18 -10 23 -8 37 16
15 27 15 29 -1 44 -9 9 -29 20 -45 26 -27 10 -27 10 -27 -34z"/>
<path d="M1156 3265 c-34 -35 -8 -78 44 -73 34 3 35 5 35 43 0 37 -2 40 -31
43 -19 2 -38 -3 -48 -13z"/>
<path d="M2396 3263 c-12 -13 -6 -67 11 -85 16 -18 17 -18 39 3 17 16 21 26
14 39 -11 21 -56 51 -64 43z"/>
<path d="M2105 3248 c-11 -28 0 -63 25 -76 21 -11 26 -11 37 4 21 28 17 74 -6
74 -11 0 -26 3 -35 6 -9 3 -18 0 -21 -8z"/>
<path d="M1843 3134 c-21 -9 -16 -67 7 -81 13 -9 21 -9 26 -2 3 6 12 8 19 5
19 -7 39 44 23 60 -15 15 -58 25 -75 18z"/>
<path d="M1055 3030 c-4 -6 -4 -24 0 -40 6 -27 10 -30 46 -30 36 0 39 2 39 28
0 20 -7 30 -27 40 -33 15 -50 15 -58 2z"/>
<path d="M2230 3001 c0 -10 -2 -25 -5 -33 -6 -15 54 -43 67 -30 4 4 9 23 10
42 3 34 2 35 -34 38 -32 3 -38 0 -38 -17z"/>
<path d="M2464 2993 c-10 -40 7 -58 52 -56 45 3 55 16 42 54 -9 25 -15 29 -49
29 -33 0 -40 -4 -45 -27z"/>
<path d="M2017 2883 c-24 -16 -26 -22 -21 -53 4 -19 7 -35 8 -36 0 -1 17 1 37
3 43 6 61 30 50 69 -9 35 -35 41 -74 17z"/>
<path d="M2316 2761 c-3 -5 -3 -23 0 -41 9 -40 51 -61 71 -34 17 23 16 35 -3
62 -15 22 -58 30 -68 13z"/>
<path d="M2552 2758 c-5 -7 -13 -28 -17 -46 -8 -38 12 -51 51 -34 20 10 24 19
24 52 0 35 -3 40 -24 40 -13 0 -28 -6 -34 -12z"/>
<path d="M2100 2620 c0 -24 6 -32 32 -43 28 -11 35 -11 47 0 11 11 11 19 1 43
-10 25 -18 30 -46 30 -31 0 -34 -3 -34 -30z"/>
<path d="M2344 2495 c-8 -59 -1 -75 35 -75 28 0 41 14 41 45 0 16 -48 75 -60
75 -5 0 -12 -20 -16 -45z"/>
<path d="M2150 2424 c0 -22 4 -33 10 -29 6 4 18 1 26 -6 17 -14 31 -4 34 26 4
40 0 45 -35 45 -33 0 -35 -2 -35 -36z"/>
<path d="M2346 2225 c-10 -39 3 -74 30 -81 12 -3 28 -3 33 1 18 11 12 64 -9
85 -27 27 -47 25 -54 -5z"/>
<path d="M2167 2220 c-6 -25 7 -62 26 -74 23 -14 47 15 47 55 0 23 -5 27 -34
31 -25 3 -36 0 -39 -12z"/>
<path d="M1981 2089 c-13 -29 -12 -33 12 -55 14 -13 29 -20 32 -14 3 5 13 6
21 3 18 -7 34 13 34 43 0 14 -12 26 -35 37 -47 22 -48 22 -64 -14z"/>
<path d="M2174 2016 c-10 -41 -1 -69 24 -73 29 -4 49 40 33 74 -14 31 -49 30
-57 -1z"/>
<path d="M2327 1963 c-6 -33 1 -53 18 -53 7 0 16 -6 18 -12 9 -21 27 12 27 48
0 24 -5 33 -22 38 -34 9 -35 8 -41 -21z"/>
<path d="M1325 1955 c-14 -13 -25 -30 -25 -37 1 -14 48 -53 56 -45 3 2 7 27
11 56 7 59 -4 65 -42 26z"/>
<path d="M1786 1901 c-23 -25 -8 -55 35 -70 47 -16 49 -15 49 29 0 57 -48 81
-84 41z"/>
<path d="M1580 1873 c0 -43 22 -84 34 -65 4 7 18 12 32 12 13 0 24 6 24 13 0
32 -14 55 -33 60 -12 2 -30 8 -39 12 -15 6 -18 1 -18 -32z"/>
<path d="M1413 1893 c-7 -2 -13 -17 -13 -33 0 -29 18 -40 68 -40 18 0 22 5 22
34 0 26 -5 35 -22 40 -26 7 -38 7 -55 -1z"/>
<path d="M2010 1851 c-17 -32 -12 -61 13 -70 50 -19 76 30 37 69 -25 25 -37
25 -50 1z"/>
<path d="M2158 1815 c-9 -19 -8 -29 6 -50 22 -33 30 -32 56 10 18 29 20 38 10
50 -20 24 -59 18 -72 -10z"/>
<path d="M1766 1773 c-15 -16 -4 -66 20 -90 29 -29 40 -23 50 23 5 27 2 33
-29 52 -20 11 -38 18 -41 15z"/>
<path d="M1572 1748 c-20 -20 -13 -47 17 -62 26 -14 30 -14 45 3 29 32 13 71
-29 71 -12 0 -26 -5 -33 -12z"/>
<path d="M2120 1655 c-12 -23 -11 -28 10 -50 30 -32 42 -31 63 4 23 38 22 44
-10 59 -38 17 -48 15 -63 -13z"/>
<path d="M1527 1610 c-9 -33 -9 -68 1 -73 4 -3 21 -8 39 -11 26 -6 34 -3 42
13 18 33 -2 71 -38 71 -16 0 -31 6 -33 12 -3 7 -7 1 -11 -12z"/>
<path d="M1738 1617 c-34 -8 -38 -12 -38 -42 0 -31 3 -34 40 -40 50 -8 60 -2
60 39 0 44 -16 55 -62 43z"/>
<path d="M1927 1578 c-7 -48 8 -78 37 -78 43 0 56 10 56 45 0 38 -26 65 -62
65 -21 0 -27 -6 -31 -32z"/>
<path d="M2105 1527 c-36 -27 9 -99 52 -83 24 10 1 96 -26 96 -4 0 -15 -6 -26
-13z"/>
<path d="M1652 1454 c-14 -16 -7 -54 12 -66 6 -4 26 -8 44 -8 29 0 32 3 32 30
0 25 -6 32 -36 45 -43 18 -36 18 -52 -1z"/>
<path d="M1853 1416 c-37 -17 -28 -94 12 -110 24 -9 52 10 62 41 8 25 6 31
-21 53 -25 21 -35 24 -53 16z"/>
<path d="M3959 5043 c-4 -65 13 -87 60 -78 44 8 43 7 36 38 -4 15 -16 28 -31
31 -13 4 -24 11 -24 16 0 18 -40 11 -41 -7z"/>
<path d="M3752 5014 c-22 -24 -10 -58 28 -76 26 -13 36 -15 42 -5 13 20 9 74
-7 87 -11 9 -15 9 -15 1 0 -8 -6 -9 -17 -2 -13 6 -22 5 -31 -5z"/>
<path d="M3566 4996 c-8 -33 49 -100 64 -76 14 22 12 53 -6 78 -20 30 -50 28
-58 -2z"/>
<path d="M3308 5003 c-18 -5 -24 -38 -10 -59 4 -7 28 -23 54 -37 l46 -24 6 42
c9 55 1 71 -36 79 -32 6 -33 6 -60 -1z"/>
<path d="M2899 3871 c-25 -26 -25 -28 -11 -59 18 -38 31 -40 60 -9 28 30 27
58 -1 78 -21 15 -23 15 -48 -10z"/>
<path d="M3382 3414 c-24 -16 -27 -35 -12 -63 8 -16 16 -17 67 -8 32 5 62 13
67 17 5 5 -1 22 -13 39 -26 35 -71 42 -109 15z"/>
<path d="M3710 3326 c0 -28 6 -38 35 -55 l35 -20 5 22 c15 71 8 87 -41 87 -32
0 -34 -2 -34 -34z"/>
<path d="M3290 3126 c0 -8 -5 -16 -11 -18 -14 -5 -4 -42 17 -63 21 -20 46 -19
72 4 43 36 21 81 -43 88 -26 2 -35 0 -35 -11z"/>
<path d="M3798 3063 c-25 -6 -22 -37 7 -70 24 -27 25 -28 40 -9 20 26 19 72
-1 80 -17 6 -19 6 -46 -1z"/>
<path d="M3152 2918 c-7 -7 -12 -20 -12 -29 0 -36 12 -49 45 -49 29 0 33 3 38
33 7 47 -39 77 -71 45z"/>
<path d="M3314 2896 c-3 -9 -7 -30 -8 -48 -1 -26 3 -32 16 -30 10 1 30 -4 46
-12 32 -16 62 -6 62 23 0 42 -103 102 -116 67z"/>
<path d="M4040 2895 c7 -8 17 -12 22 -9 6 4 5 10 -3 15 -22 14 -33 10 -19 -6z"/>
<path d="M3575 2893 c-22 -4 -53 -43 -35 -43 5 0 10 -9 10 -20 0 -19 6 -21 50
-19 l50 3 0 43 c0 41 -2 43 -27 42 -16 -1 -37 -4 -48 -6z"/>
<path d="M3810 2871 c-18 -35 -12 -60 20 -76 27 -14 32 -14 45 -1 20 20 19 39
-6 70 -24 31 -44 33 -59 7z"/>
<path d="M3377 1743 c-17 -16 -6 -63 20 -87 15 -14 30 -23 34 -20 15 9 21 72
10 93 -11 20 -50 29 -64 14z"/>
<path d="M2734 1505 c-10 -24 5 -63 25 -70 11 -3 31 -3 45 1 20 5 26 12 26 33
0 21 -7 29 -33 39 -44 16 -56 15 -63 -3z"/>
<path d="M3034 1424 c9 -35 35 -74 50 -74 21 0 36 23 36 56 0 33 -16 44 -69
44 -20 0 -22 -3 -17 -26z"/>
<path d="M3347 1432 c-22 -24 -22 -81 -1 -89 24 -9 78 11 82 31 2 10 -2 31 -8
47 -14 34 -48 39 -73 11z"/>
<path d="M2922 1268 c-19 -19 -14 -56 9 -68 33 -18 64 -9 67 21 5 45 -46 77
-76 47z"/>
<path d="M2628 1225 c-31 -41 -19 -100 18 -93 21 3 30 51 20 94 -8 30 -16 30
-38 -1z"/>
<path d="M3188 1132 c-33 -20 -36 -50 -10 -82 16 -20 21 -21 41 -11 29 16 43
54 31 86 -11 29 -24 30 -62 7z"/>
<path d="M2847 1014 c-43 -23 -33 -94 14 -94 20 0 29 20 29 65 0 42 -8 47 -43
29z"/>
<path d="M2658 6169 c-26 -15 -22 -54 7 -73 38 -25 52 -20 60 21 5 29 3 40
-11 50 -21 15 -33 16 -56 2z"/>
<path d="M2780 5794 c-18 -5 -48 -55 -42 -72 2 -6 11 -12 21 -12 9 0 22 -5 28
-11 18 -18 43 -3 43 25 0 27 -19 77 -29 75 -3 -1 -13 -3 -21 -5z"/>
<path d="M2845 5430 c-15 -16 -17 -26 -9 -48 13 -36 46 -41 63 -9 11 21 11 28
-4 51 -21 31 -26 32 -50 6z"/>
<path d="M2856 5141 c-12 -14 -14 -24 -7 -43 18 -49 62 -62 85 -26 8 13 6 26
-7 52 -19 40 -44 46 -71 17z"/>
<path d="M11983 2221 c-3 -11 -12 -21 -21 -23 -14 -3 -14 -5 -1 -18 9 -8 20
-23 25 -32 8 -15 13 -16 35 -4 13 7 30 11 37 8 16 -5 16 60 0 76 -20 20 -69
15 -75 -7z"/>
<path d="M12064 1956 c-6 -34 9 -86 26 -86 5 0 10 5 10 11 0 7 10 9 24 7 27
-5 36 7 36 50 0 38 -10 47 -52 48 -34 0 -38 -2 -44 -30z"/>
<path d="M11768 1883 c-21 -5 -22 -18 -7 -61 10 -30 39 -52 39 -30 0 7 7 3 15
-8 14 -19 15 -18 35 6 14 18 18 33 14 55 -4 17 -7 31 -8 31 -5 5 -75 11 -88 7z"/>
<path d="M11710 1711 c0 -6 -11 -11 -25 -11 -20 0 -25 -5 -25 -25 0 -14 11
-37 25 -50 25 -26 45 -32 45 -15 0 6 9 10 19 10 29 0 32 25 8 61 -23 33 -47
49 -47 30z"/>
<path d="M11886 1584 c-3 -8 -13 -14 -22 -14 -11 0 -14 -5 -10 -16 3 -9 6 -26
6 -39 0 -19 6 -24 36 -27 32 -4 37 -1 50 30 19 46 19 46 -20 63 -29 13 -36 14
-40 3z"/>
<path d="M11670 1520 c0 -8 -8 -10 -24 -6 -24 6 -56 -14 -56 -35 0 -22 32 -69
46 -69 18 0 74 56 74 75 0 6 -9 20 -20 30 -13 12 -20 14 -20 5z"/>
<path d="M11492 1330 c-18 -30 -15 -56 12 -85 24 -25 24 -26 31 -6 4 15 15 21
36 21 26 0 29 3 29 35 0 24 -6 37 -19 45 -32 17 -75 12 -89 -10z"/>
<path d="M11366 1115 c-4 -12 -10 -14 -25 -5 -26 13 -31 13 -31 -5 0 -8 -7
-15 -15 -15 -12 0 -14 -7 -9 -27 12 -55 14 -59 24 -43 8 12 13 13 29 3 16 -10
26 -8 60 10 23 12 41 25 41 29 0 10 -51 68 -60 68 -4 0 -11 -7 -14 -15z"/>
<path d="M2910 435 c-40 -14 -44 -23 -30 -59 14 -38 39 -44 62 -17 18 23 25
76 11 84 -5 2 -24 -2 -43 -8z"/>
<path d="M284 1765 c-42 -63 -72 -149 -85 -243 -8 -60 -7 -83 6 -129 20 -67
61 -113 102 -113 34 0 189 72 195 91 15 45 -37 222 -72 244 -5 3 -10 20 -10
37 0 17 -10 61 -22 99 -22 64 -25 67 -52 66 -23 -2 -36 -13 -62 -52z m112
-284 l17 -55 -27 -23 c-35 -30 -62 -29 -83 3 -22 35 -21 135 3 193 l17 44 28
-54 c16 -30 36 -78 45 -108z"/>
</g>
</svg>
